<svg width="1083" height="1057" viewBox="0 0 1083 1057" fill="none" xmlns="http://www.w3.org/2000/svg">
<path fill-rule="evenodd" clip-rule="evenodd" d="M431.293 143.06L146.66 636.06L84.306 528.06L306.586 143.06L431.293 143.06Z" fill="#C71E1E"/>
<path fill-rule="evenodd" clip-rule="evenodd" d="M146.66 636.06L431.294 143.06L558.311 143.06L210.168 746.06L146.66 636.06Z" fill="#282828"/>
<path fill-rule="evenodd" clip-rule="evenodd" d="M210.168 746.06L558.31 143.06L685.327 143.06L273.677 856.06L210.168 746.06Z" fill="#C71E1E"/>
<path fill-rule="evenodd" clip-rule="evenodd" d="M273.677 856.06L685.328 143.06L751.145 143.06L781.745 196.06L367.785 913.059L306.586 913.059L273.677 856.06Z" fill="#282828"/>
<path fill-rule="evenodd" clip-rule="evenodd" d="M367.785 913.06L781.745 196.06L845.254 306.06L494.802 913.06L367.785 913.06Z" fill="#C71E1E"/>
<path fill-rule="evenodd" clip-rule="evenodd" d="M621.82 913.059L494.802 913.059L845.254 306.06L908.762 416.06L621.82 913.059Z" fill="#282828"/>
<path fill-rule="evenodd" clip-rule="evenodd" d="M748.836 913.059L621.819 913.059L908.762 416.06L972.27 526.06L748.836 913.059Z" fill="#C71E1E"/>
<path d="M529 833.449C697.447 833.449 834 696.896 834 528.449L834 453.52H224V528.449C224 696.896 360.553 833.449 529 833.449Z" fill="#A61919"/>
<path d="M529 149C360.553 149 224 285.553 224 454C224 622.447 360.553 759 529 759C697.447 759 834 622.447 834 454C834 285.553 697.447 149 529 149Z" fill="#FF2626"/>
</svg>
