<svg width="1110" height="1057" viewBox="0 0 1110 1057" fill="none" xmlns="http://www.w3.org/2000/svg">
<path fill-rule="evenodd" clip-rule="evenodd" d="M458.127 142.5L173.494 635.5L111.14 527.5L333.42 142.5L458.127 142.5Z" fill="#C71E1E"/>
<path fill-rule="evenodd" clip-rule="evenodd" d="M173.494 635.5L458.128 142.5L585.145 142.5L237.002 745.5L173.494 635.5Z" fill="#282828"/>
<path fill-rule="evenodd" clip-rule="evenodd" d="M237.002 745.5L585.144 142.5L712.161 142.5L300.511 855.5L237.002 745.5Z" fill="#C71E1E"/>
<path fill-rule="evenodd" clip-rule="evenodd" d="M300.511 855.5L712.162 142.5L777.979 142.5L808.579 195.5L394.619 912.5L333.42 912.5L300.511 855.5Z" fill="#282828"/>
<path fill-rule="evenodd" clip-rule="evenodd" d="M394.619 912.5L808.579 195.5L872.088 305.5L521.636 912.5L394.619 912.5Z" fill="#C71E1E"/>
<path fill-rule="evenodd" clip-rule="evenodd" d="M648.653 912.5L521.636 912.5L872.087 305.5L935.595 415.5L648.653 912.5Z" fill="#282828"/>
<path fill-rule="evenodd" clip-rule="evenodd" d="M775.67 912.5L648.653 912.5L935.596 415.5L999.104 525.5L775.67 912.5Z" fill="#C71E1E"/>
<circle cx="555" cy="528" r="305" fill="#FF2626"/>
</svg>
