<svg width="1264" height="580" viewBox="0 0 1264 580" fill="none" xmlns="http://www.w3.org/2000/svg">
<path d="M521 570V572.999L555 573V570" stroke="#6B6E6C" stroke-width="2"/>
<path d="M569 570V572.999L621 573V570" stroke="#6B6E6C" stroke-width="2"/>
<path d="M738 580V570M735 573H741" stroke="#6B6E6C" stroke-width="2"/>
<path d="M960 576V570M957 573H963" stroke="#6B6E6C" stroke-width="2"/>
<path d="M747 573H751M755 573H759M763 573H767M771 573H775M779 573H783M787 573H791M795 573H799M803 573H807M811 573H815M819 573H823M827 573H831M835 573H839M843 573H847M851 573H855M859 573H863M867 573H871M875 573H879M883 573H887M891 573H895M899 573H903M907 573H911M915 573H919M923 573H927M931 573H935M939 573H943M947 573H951" stroke="#6B6E6C" stroke-width="2"/>
<path d="M636 570V576M646 570V576M656 570V576M666 570V576M676 570V576M686 570V576M697 570V576M707 570V576M717 570V576M727 570V576" stroke="#6B6E6C" stroke-width="2"/>
<path d="M6 573C6 576.314 8.68629 579 12 579C14.087 579 15.9251 577.934 17 576.318V569.682C15.9251 568.066 14.087 567 12 567C8.68629 567 6 569.686 6 573Z" fill="#6B6E6C"/>
<path d="M7.5 573H1M1 573V570.225M1 573V575.775M21 568V566" stroke="#6B6E6C" stroke-width="2"/>
<circle cx="21" cy="573" r="5" stroke="#6B6E6C" stroke-width="2"/>
<path d="M48 573H72M60 579V567M50.7692 570.143V575.857C50.7692 575.857 56.3238 577.286 60 577.286C63.6762 577.286 69.2308 575.857 69.2308 575.857V570.143C69.2308 570.143 63.6762 568.714 60 568.714C56.3238 568.714 50.7692 570.143 50.7692 570.143Z" stroke="#6B6E6C" stroke-width="2"/>
<path d="M37 566V573.186M43 570.966L37 573.186M40.7082 579L37 573.186M33.2918 579L37 573.186M31 570.966L37 573.186" stroke="#6B6E6C" stroke-width="2"/>
<path d="M76.5 576V573M76.5 570V573M76.5 573H164M164 573V570M164 573V576" stroke="#6B6E6C" stroke-width="2"/>
<circle cx="394" cy="576" r="1" fill="#6B6E6C"/>
<circle cx="467" cy="576" r="1" fill="#6B6E6C"/>
<path d="M503 580V573M503 568V573M503 573H430M503 573H512M358 573V570M358 573V576M358 573H430M430 573V569M430 573V577" stroke="#6B6E6C" stroke-width="2"/>
<circle cx="176" cy="573" r="1" fill="#6B6E6C"/>
<circle cx="170" cy="573" r="1" fill="#6B6E6C"/>
<circle cx="182" cy="573" r="1" fill="#6B6E6C"/>
<circle cx="188" cy="573" r="1" fill="#6B6E6C"/>
<circle cx="194" cy="573" r="1" fill="#6B6E6C"/>
<circle cx="200" cy="573" r="1" fill="#6B6E6C"/>
<circle cx="206" cy="573" r="1" fill="#6B6E6C"/>
<circle cx="212" cy="573" r="1" fill="#6B6E6C"/>
<circle cx="218" cy="573" r="1" fill="#6B6E6C"/>
<circle cx="224" cy="573" r="1" fill="#6B6E6C"/>
<circle cx="230" cy="573" r="1" fill="#6B6E6C"/>
<circle cx="236" cy="573" r="1" fill="#6B6E6C"/>
<circle cx="242" cy="573" r="1" fill="#6B6E6C"/>
<circle cx="248" cy="573" r="1" fill="#6B6E6C"/>
<circle cx="272" cy="573" r="1" fill="#6B6E6C"/>
<circle cx="278" cy="573" r="1" fill="#6B6E6C"/>
<circle cx="284" cy="573" r="1" fill="#6B6E6C"/>
<circle cx="290" cy="573" r="1" fill="#6B6E6C"/>
<circle cx="296" cy="573" r="1" fill="#6B6E6C"/>
<circle cx="302" cy="573" r="1" fill="#6B6E6C"/>
<circle cx="308" cy="573" r="1" fill="#6B6E6C"/>
<circle cx="314" cy="573" r="1" fill="#6B6E6C"/>
<circle cx="320" cy="573" r="1" fill="#6B6E6C"/>
<circle cx="326" cy="573" r="1" fill="#6B6E6C"/>
<circle cx="332" cy="573" r="1" fill="#6B6E6C"/>
<circle cx="338" cy="573" r="1" fill="#6B6E6C"/>
<circle cx="344" cy="573" r="1" fill="#6B6E6C"/>
<circle cx="350" cy="573" r="1" fill="#6B6E6C"/>
<path d="M266 573H260M254 573H260M260 573V566M260 573V576" stroke="#6B6E6C" stroke-width="2"/>
<path d="M974 570V573H1032V570" stroke="#6B6E6C" stroke-width="2"/>
<path d="M1038 570V573H1090V570" stroke="#6B6E6C" stroke-width="2"/>
<path d="M1096 570V573H1174M1243 570V573H1174M1174 573V571M1174 573V575" stroke="#6B6E6C" stroke-width="2"/>
<path d="M1257 565H1260V493M1257 421H1260V493M1260 493H1258M1260 493H1262" stroke="#6B6E6C" stroke-width="2"/>
<path d="M1256.5 362L1262.5 363.22M1256.5 373.39L1262.5 374.61M1256.5 384.78L1262.5 386M1256.5 396L1262.5 397.22M1256.5 407.39L1262.5 408.61M1256.5 306.5L1262.5 307.72M1256.5 317.89L1262.5 319.11M1256.5 329.28L1262.5 330.5M1256.5 340.5L1262.5 341.72M1256.5 351.89L1262.5 353.11M1256.5 250.5L1262.5 251.72M1256.5 261.89L1262.5 263.11M1256.5 273.28L1262.5 274.5M1256.5 285H1263M1263 285V283M1263 285V287M1256.5 295.89L1262.5 297.11M1256.5 195L1262.5 196.22M1256.5 206.39L1262.5 207.61M1256.5 217.78L1262.5 219M1256.5 229L1262.5 230.22M1256.5 240.39L1262.5 241.61M1256.5 173.669L1262.5 174.89M1256.5 184.89L1262.5 186.11" stroke="#6B6E6C" stroke-width="2"/>
<path d="M1257 156H1260M1263 156H1260M1260 156V153M1260 156V159M1260 163V167M1260 145V149M1260 137V141M1260 129V133M1260 121V125M1257 114H1260M1263 114H1260M1260 114V111M1260 114V117M1260 103V107M1260 95V99M1260 87V91M1260 78.9999V82.9999M1257 72H1260M1263 72H1260M1260 72V69V1H1257M1260 72V75" stroke="#6B6E6C" stroke-width="2"/>
<path fill-rule="evenodd" clip-rule="evenodd" d="M1249.82 579H1252.19L1254.42 575.653H1255.55C1256.84 575.653 1257.9 575.569 1258.77 575.435L1258.82 579H1261.18L1261.03 574.844C1262.46 574.257 1262.7 573.563 1262.7 573.563C1262.7 573.563 1262.13 573.497 1260.98 573.447L1260.74 567H1258L1253.65 573.391H1247.9H1245.2C1244.96 573.391 1244.91 574.084 1245.2 574.276C1245.47 574.448 1245.78 574.448 1246.1 574.276C1247.3 574.364 1247.96 574.357 1249.16 574.276V575.653H1252.1L1249.82 579ZM1255.93 573.391H1258.19C1258.38 573.391 1258.56 573.392 1258.74 573.393L1258.69 569.4H1258.59L1255.93 573.391Z" fill="#6B6E6C"/>
</svg>
