<svg width="315" height="315" viewBox="0 0 315 315" fill="none" xmlns="http://www.w3.org/2000/svg">
<path fill-rule="evenodd" clip-rule="evenodd" d="M15 314.813L314.813 15L300.671 0.857849L0.85791 300.671L15 314.813ZM242.565 102.447L256.933 88.0792C271.15 107.83 279.525 132.068 279.525 158.262C279.525 224.681 225.681 278.525 159.262 278.525C133.068 278.525 108.83 270.15 89.0793 255.933L103.447 241.565C119.401 252.276 138.602 258.525 159.262 258.525C214.636 258.525 259.525 213.636 259.525 158.262C259.525 137.602 253.276 118.401 242.565 102.447ZM39 158.262C39 184.523 47.4173 208.819 61.7012 228.597L76.0649 214.233C65.2898 198.248 59 178.99 59 158.262C59 102.889 103.889 58 159.262 58C179.99 58 199.248 64.2898 215.233 75.0648L229.597 60.7012C209.819 46.4173 185.523 38 159.262 38C92.8433 38 39 91.8433 39 158.262Z" fill="white"/>
</svg>
