<svg width="338" height="338" viewBox="0 0 338 338" fill="none" xmlns="http://www.w3.org/2000/svg">
<path fill-rule="evenodd" clip-rule="evenodd" d="M159 84.5218V159H83.6383C88.4336 119.841 119.704 88.8658 159 84.5218ZM159 64.4219C108.648 68.9157 68.4776 108.784 63.516 159H0V179H63.4219C67.9455 229.685 108.315 270.055 159 274.578V338H179V274.484C229.216 269.522 269.084 229.352 273.578 179H338V159H273.484C268.555 109.117 228.883 69.4447 179 64.516V0H159V64.4219ZM179 84.6383V159H253.362C248.607 120.174 217.826 89.3928 179 84.6383ZM253.478 179H179V254.362C218.159 249.566 249.134 218.296 253.478 179ZM159 254.478V179H83.5218C87.9027 218.63 119.37 250.097 159 254.478Z" fill="white"/>
</svg>
