<svg width="235" height="284" viewBox="0 0 235 284" fill="none" xmlns="http://www.w3.org/2000/svg">
<path d="M10 178V181H26V178" stroke="#6B6E6C" stroke-width="2"/>
<path d="M10 108V105H26V108" stroke="#6B6E6C" stroke-width="2"/>
<path d="M18 211V230.006M18 211H22M18 211V192.994M18 230.006H22M18 230.006V234M18 192.994H22M18 192.994V184M27 191V195M27 210V212M27 229V231M18 277V284M18 277L22 277M18 277V270M27 276V278" stroke="#6B6E6C" stroke-width="2"/>
<path d="M16 100V38M20 100V38" stroke="#6B6E6C" stroke-width="2"/>
<path d="M5 14V10H9" stroke="#6B6E6C" stroke-width="2"/>
<path d="M9 36H5V32" stroke="#6B6E6C" stroke-width="2"/>
<path d="M31 32V36H27" stroke="#6B6E6C" stroke-width="2"/>
<path d="M27 10H31V14" stroke="#6B6E6C" stroke-width="2"/>
<path d="M44 6V0M51 3H75M82 6V0M120 6V0M158 6V0M196 6V0M234 6V0M89 3H113M127 3H151M165 3H189M203 3H227" stroke="#6B6E6C" stroke-width="2"/>
<path d="M18 8C18 6.82843 18 3 18 3M18 3H40M18 3H0" stroke="#6B6E6C" stroke-width="2"/>
<path d="M25.1698 164.781V169.71L11.2599 165.458V160.429C11.2599 158.985 11.5384 157.83 12.0953 156.963C12.6477 156.09 13.4424 155.533 14.4793 155.291C15.5162 155.05 16.7568 155.15 18.2013 155.591C19.6502 156.034 20.8954 156.697 21.9368 157.578C22.9783 158.455 23.7774 159.507 24.3344 160.733C24.8913 161.955 25.1698 163.304 25.1698 164.781ZM22.9896 166.409V164.243C22.9896 163.229 22.813 162.33 22.4598 161.545C22.1021 160.759 21.5701 160.087 20.8637 159.53C20.1528 158.972 19.2653 158.53 18.2013 158.205C17.1372 157.879 16.2542 157.78 15.5524 157.906C14.846 158.031 14.3185 158.374 13.9699 158.935C13.6167 159.49 13.4401 160.26 13.4401 161.245V163.489L22.9896 166.409ZM25.3735 150.564C25.3735 151.658 25.1562 152.536 24.7215 153.199C24.2823 153.855 23.662 154.274 22.8605 154.455C22.0546 154.635 21.1059 154.558 20.0147 154.224C18.9416 153.896 17.9998 153.395 17.1893 152.721C16.3742 152.041 15.7403 151.246 15.2875 150.336C14.8302 149.424 14.6015 148.448 14.6015 147.406C14.6015 146.734 14.7057 146.131 14.914 145.598C15.1177 145.059 15.4347 144.626 15.8648 144.298C16.295 143.965 16.8429 143.768 17.5085 143.707C18.1696 143.644 18.9574 143.752 19.8721 144.032L20.626 144.262V153.204L18.9688 152.697V146.22C18.4978 146.081 18.079 146.059 17.7122 146.155C17.341 146.25 17.0489 146.452 16.8361 146.761C16.6233 147.065 16.5169 147.464 16.5169 147.956C16.5169 148.482 16.6391 148.981 16.8836 149.453C17.1236 149.924 17.4406 150.331 17.8345 150.674C18.2239 151.011 18.6518 151.253 19.1182 151.401L20.5649 151.843C21.1716 152.028 21.6923 152.072 22.127 151.972C22.5572 151.872 22.8877 151.649 23.1186 151.303C23.345 150.955 23.4582 150.502 23.4582 149.943C23.4582 149.569 23.4084 149.216 23.3088 148.882C23.2047 148.547 23.053 148.238 22.8537 147.955C22.6545 147.671 22.4077 147.428 22.1134 147.224L22.3715 144.902C22.9783 145.239 23.508 145.69 23.9608 146.255C24.4091 146.813 24.7577 147.46 25.0068 148.194C25.2513 148.927 25.3735 149.717 25.3735 150.564ZM11.2599 136.653L25.1698 140.905L25.1698 143.476L11.2599 139.224V136.653ZM25.3803 135.187C25.3803 135.878 25.2626 136.464 25.0272 136.946C24.7872 137.422 24.434 137.75 23.9676 137.929C23.5012 138.104 22.9262 138.087 22.2425 137.878C21.6538 137.698 21.1671 137.435 20.7822 137.09C20.3973 136.745 20.0894 136.341 19.8585 135.878C19.6276 135.414 19.4532 134.918 19.3355 134.39C19.2133 133.855 19.125 133.314 19.0706 132.767C19.0072 132.109 18.9506 131.573 18.9008 131.16C18.8465 130.746 18.765 130.432 18.6563 130.219C18.5431 130 18.3688 129.854 18.1333 129.782L18.0926 129.77C17.5809 129.613 17.1847 129.651 16.904 129.882C16.6233 130.113 16.4829 130.527 16.4829 131.124C16.4829 131.754 16.6142 132.293 16.8768 132.743C17.1395 133.188 17.4496 133.529 17.8073 133.766L17.4813 136.067C16.8474 135.684 16.3176 135.209 15.892 134.644C15.4618 134.077 15.1404 133.446 14.9275 132.751C14.7102 132.055 14.6015 131.325 14.6015 130.563C14.6015 130.037 14.6604 129.532 14.7781 129.047C14.8959 128.563 15.0906 128.146 15.3622 127.798C15.6294 127.449 15.9939 127.215 16.4557 127.096C16.9176 126.972 17.4949 127.016 18.1877 127.228L25.1698 129.362V131.834L23.7367 131.396V131.481C24.0265 131.726 24.2982 132.029 24.5517 132.391C24.8008 132.746 25.0023 133.16 25.1562 133.634C25.3056 134.101 25.3803 134.618 25.3803 135.187ZM23.5737 133.967C23.5737 133.45 23.4763 132.973 23.2816 132.535C23.0824 132.095 22.8198 131.724 22.4938 131.421C22.1678 131.113 21.8123 130.9 21.4274 130.782L20.1981 130.406C20.2615 130.506 20.3203 130.661 20.3747 130.872C20.429 131.078 20.4766 131.306 20.5173 131.555C20.5581 131.804 20.5943 132.05 20.626 132.291C20.6577 132.533 20.6848 132.742 20.7075 132.92C20.7573 133.319 20.8388 133.687 20.952 134.024C21.0652 134.362 21.2237 134.65 21.4274 134.887C21.6267 135.123 21.8848 135.29 22.2017 135.387C22.6545 135.525 22.9964 135.457 23.2273 135.182C23.4582 134.907 23.5737 134.502 23.5737 133.967ZM29.0819 126.766C29.0819 127.116 29.0548 127.432 29.0004 127.714C28.9506 127.992 28.8918 128.208 28.8239 128.363L26.9085 127.181C27.0127 126.839 27.0625 126.52 27.0579 126.225C27.0534 125.93 26.9651 125.645 26.7931 125.37C26.6255 125.091 26.3448 124.814 25.9509 124.537L25.3871 124.145L14.7374 124.845V122.117L22.616 122.012V121.898L14.7374 116.968V114.234L26.4331 122.177C26.9855 122.55 27.4587 122.964 27.8526 123.421C28.2511 123.879 28.5544 124.384 28.7627 124.935C28.9755 125.483 29.0819 126.093 29.0819 126.766Z" fill="white"/>
</svg>
