<svg width="293" height="344" viewBox="0 0 293 344" fill="none" xmlns="http://www.w3.org/2000/svg">
<path fill-rule="evenodd" clip-rule="evenodd" d="M269.928 128.954C284.532 118.145 293 105.292 293 91.5V69.5C293 31.1162 227.41 0 146.5 0C65.5903 0 0 31.1162 0 69.5V91.5C0 105.394 8.59399 118.336 23.3977 129.194L52.0532 299.5C55.6426 324 94.5862 343.5 147.053 343.5C199.52 343.5 237.194 323.5 241.232 299.5L269.928 128.954ZM30.5088 71.9045C57.3013 52.3369 99.2932 38 146.5 38C193.707 38 235.698 52.3371 262.491 71.9049C257.784 100.497 207.651 123 146.5 123C85.3481 123 35.2151 100.497 30.5088 71.9045ZM87.6335 309.199C87.8 311.955 85.7007 314.325 82.9441 314.491C80.1877 314.658 77.8184 312.558 77.6519 309.802L68.6519 160.801C68.4854 158.045 70.585 155.676 73.3413 155.509C76.0977 155.343 78.467 157.442 78.6335 160.199L87.6335 309.199ZM211.341 314.491C208.585 314.325 206.485 311.955 206.652 309.199L215.652 160.199C215.818 157.442 218.188 155.343 220.944 155.509C223.701 155.676 225.8 158.045 225.634 160.801L216.634 309.802C216.467 312.558 214.098 314.658 211.341 314.491ZM147.643 331.5C144.881 331.518 142.628 329.295 142.61 326.533L141.643 180.533C141.625 177.772 143.848 175.518 146.61 175.5C149.371 175.482 151.624 177.706 151.643 180.467L152.609 326.467C152.628 329.228 150.404 331.482 147.643 331.5Z" fill="white"/>
</svg>
