<svg width="363" height="177" viewBox="0 0 363 177" fill="none" xmlns="http://www.w3.org/2000/svg">
<path fill-rule="evenodd" clip-rule="evenodd" d="M137.412 45.4524C160.267 65.1342 171 105.551 171 177H191C191 105.551 201.733 65.1342 224.588 45.4524C236.07 35.5642 251.493 29.1089 272.484 25.1895C293.547 21.2564 319.507 20 351.5 20V0C319.243 0 291.765 1.24356 268.813 5.52927C245.788 9.82856 226.617 17.3108 211.537 30.2976C197.235 42.6144 187.398 59.1762 181 80.769C174.602 59.1762 164.765 42.6144 150.463 30.2976C135.383 17.3108 116.212 9.82856 93.1871 5.52927C70.2349 1.24356 42.7574 0 10.5 0V20C42.4926 20 68.4526 21.2564 89.5161 25.1895C110.507 29.1089 125.93 35.5642 137.412 45.4524ZM0 177H64.9624V157H0V177ZM88.0376 177H153V157H88.0376V177ZM206.5 177H271.462V157H206.5V177ZM297.538 177H362.5V157H297.538V177Z" fill="white"/>
</svg>
