<svg width="232" height="284" viewBox="0 0 232 284" fill="none" xmlns="http://www.w3.org/2000/svg">
<path d="M22.1698 166.827L8.2599 162.575V153.257L10.3722 153.902V160.586L14.1485 161.74V155.696L16.2608 156.342V162.386L22.1698 164.192V166.827ZM22.1698 155.222L11.7374 152.033V149.462L22.1698 152.651V155.222ZM10.2567 150.288C10.2567 150.695 10.1277 151.006 9.86959 151.22C9.60697 151.434 9.29228 151.484 8.92551 151.372C8.55422 151.258 8.23953 151.015 7.98143 150.643C7.71881 150.269 7.5875 149.879 7.5875 149.471C7.5875 149.06 7.71881 148.749 7.98143 148.541C8.23953 148.326 8.55422 148.276 8.92551 148.389C9.29228 148.501 9.60697 148.744 9.86959 149.118C10.1277 149.486 10.2567 149.876 10.2567 150.288ZM8.2599 143.184L22.1698 147.436V150.007L8.2599 145.755V143.184ZM11.7374 136.156L13.6391 136.737V143.008L11.7374 142.427V136.156ZM9.23794 140.115V137.544L19.0319 140.538C19.3625 140.639 19.616 140.664 19.7926 140.614C19.9647 140.558 20.0824 140.452 20.1458 140.296C20.2092 140.14 20.2409 139.956 20.2409 139.743C20.2409 139.582 20.2296 139.431 20.2069 139.292C20.1843 139.148 20.1639 139.037 20.1458 138.961L22.0679 139.115C22.1132 139.266 22.163 139.478 22.2173 139.75C22.2717 140.018 22.3034 140.335 22.3124 140.703C22.3305 141.352 22.2377 141.904 22.034 142.358C21.8257 142.81 21.5042 143.121 21.0695 143.291C20.6348 143.457 20.0915 143.438 19.4394 143.233L9.23794 140.115ZM22.3735 132.545C22.3735 133.639 22.1562 134.517 21.7215 135.179C21.2823 135.836 20.662 136.255 19.8605 136.436C19.0546 136.615 18.1059 136.538 17.0147 136.205C15.9416 135.877 14.9998 135.376 14.1893 134.702C13.3742 134.022 12.7403 133.227 12.2875 132.316C11.8302 131.405 11.6015 130.428 11.6015 129.387C11.6015 128.714 11.7057 128.112 11.914 127.579C12.1177 127.04 12.4347 126.606 12.8648 126.278C13.295 125.946 13.8429 125.749 14.5085 125.687C15.1696 125.624 15.9574 125.732 16.8721 126.012L17.626 126.243V135.184L15.9688 134.678V128.2C15.4978 128.061 15.079 128.04 14.7122 128.136C14.341 128.231 14.0489 128.433 13.8361 128.742C13.6233 129.046 13.5169 129.444 13.5169 129.937C13.5169 130.462 13.6391 130.961 13.8836 131.434C14.1236 131.905 14.4406 132.312 14.8345 132.655C15.2239 132.992 15.6518 133.234 16.1182 133.381L17.5649 133.823C18.1716 134.009 18.6923 134.052 19.127 133.953C19.5572 133.852 19.8877 133.629 20.1186 133.283C20.345 132.936 20.4582 132.483 20.4582 131.924C20.4582 131.55 20.4084 131.196 20.3088 130.863C20.2047 130.528 20.053 130.218 19.8537 129.935C19.6545 129.652 19.4077 129.408 19.1134 129.204L19.3715 126.883C19.9783 127.22 20.508 127.671 20.9608 128.235C21.4091 128.794 21.7577 129.44 22.0068 130.174C22.2513 130.907 22.3735 131.697 22.3735 132.545ZM22.1698 125.457L11.7374 122.267V119.774L13.4761 120.306V120.192C12.8739 119.809 12.4098 119.326 12.0838 118.744C11.7532 118.155 11.588 117.548 11.588 116.923C11.588 116.781 11.5947 116.625 11.6083 116.454C11.6174 116.276 11.6332 116.132 11.6559 116.021L13.9176 116.712C13.8814 116.81 13.8497 116.973 13.8225 117.202C13.7908 117.424 13.775 117.644 13.775 117.862C13.775 118.33 13.8723 118.782 14.067 119.215C14.2572 119.643 14.5221 120.015 14.8617 120.332C15.2013 120.649 15.5929 120.875 16.0367 121.011L22.1698 122.886V125.457Z" fill="white"/>
<path d="M7 175V178H23V175" stroke="#6B6E6C" stroke-width="2"/>
<path d="M7 110V107H23V110" stroke="#6B6E6C" stroke-width="2"/>
<path d="M20 101H15V38" stroke="#6B6E6C" stroke-width="2"/>
<path d="M2 14V10H6" stroke="#6B6E6C" stroke-width="2"/>
<path d="M6 36H2L2 32" stroke="#6B6E6C" stroke-width="2"/>
<path d="M28 32V36H24" stroke="#6B6E6C" stroke-width="2"/>
<path d="M24 10H28V14" stroke="#6B6E6C" stroke-width="2"/>
<path d="M11 193H9M11 193V191M11 193H15M11 193V197M19 193H21M19 193V191M19 193H15M19 193V197M19 201H21M19 201V203M19 201H15M19 201V197M11 201V203M11 201H9M11 201V197M11 201H15M15 193V191M11 197H9M15 201V203M19 197H21M11 221H9M11 221V219M11 221H15M11 221V225M19 221H21M19 221V219M19 221H15M19 221V225M19 229H21M19 229V231M19 229H15M19 229V225M11 229V231M11 229H9M11 229V225M11 229H15M15 221V219M11 225H9M15 229V231M19 225H21M15 215V207M15 275V267M15 275H10V279H15M15 275H20V279H15M15 284V279M15 187V179" stroke="#6B6E6C" stroke-width="2"/>
<path d="M15 8V3M15 3H50V9M15 3H0M54 9V3H83M112 9V3H83M116 9V3H141V9M145 9V3H177V9M181 9V3H189M197 9V3H189M201 9V3H231V9M83 3V0M189 3V0" stroke="#6B6E6C" stroke-width="2"/>
</svg>
