<svg width="308" height="365" viewBox="0 0 308 365" fill="none" xmlns="http://www.w3.org/2000/svg">
<path fill-rule="evenodd" clip-rule="evenodd" d="M154.892 56.7675L163.812 0.443649L208.752 7.56142L199.843 63.8119C200.343 63.9683 200.843 64.1271 201.341 64.2882C209.845 67.0414 217.988 70.4988 225.711 74.5831C282.191 104.453 316.185 167.854 305.627 234.51C292.349 318.343 213.626 375.539 129.793 362.261C45.9599 348.984 -11.2363 270.26 2.04152 186.427C12.5988 119.771 64.5212 69.9772 127.467 59.0227C135.9 57.555 144.53 56.7843 153.284 56.763C153.82 56.7617 154.355 56.7632 154.892 56.7675ZM153.333 76.7629C160.388 76.7457 167.542 77.2883 174.747 78.4294C181.792 79.5452 188.614 81.1903 195.181 83.3161C202.575 85.7098 209.651 88.7145 216.361 92.2629C265.512 118.257 295.052 173.428 285.873 231.381C274.324 304.305 205.845 354.057 132.921 342.508C59.9983 330.958 10.2454 262.479 21.7953 189.556C30.9742 131.602 76.1179 88.2596 130.896 78.7265C138.222 77.4515 145.722 76.7815 153.333 76.7629ZM196.18 257.627L203.952 263.92L216.538 248.377L208.767 242.084L160.128 202.697L152.356 196.404L139.77 211.947L147.541 218.24L196.18 257.627ZM163.263 87.0131L158.575 116.615L178.328 119.744L183.017 90.1418L163.263 87.0131ZM129.271 301.628L124.583 331.231L144.337 334.359L149.025 304.757L129.271 301.628ZM267.427 161.713L239.447 172.454L243.03 181.789L271.011 171.049L267.427 161.713ZM64.5691 239.583L36.5887 250.324L40.1724 259.659L68.1528 248.919L64.5691 239.583ZM208.856 134.752L227.718 111.46L235.489 117.754L216.628 141.046L208.856 134.752ZM72.1108 303.619L90.9722 280.327L98.7437 286.62L79.8822 309.912L72.1108 303.619ZM54.5742 136.769L77.8661 155.63L84.1593 147.859L60.8674 128.997L54.5742 136.769ZM223.441 273.514L246.733 292.375L253.026 284.604L229.734 265.742L223.441 273.514ZM115.567 125.039L104.827 97.0587L114.162 93.475L124.903 121.455L115.567 125.039ZM193.437 327.897L182.697 299.917L192.032 296.333L202.773 324.314L193.437 327.897ZM30.1269 201.223L59.729 205.911L62.8577 186.158L33.2556 181.469L30.1269 201.223ZM244.742 235.215L274.344 239.903L277.473 220.149L247.871 215.461L244.742 235.215Z" fill="white"/>
</svg>
