<svg width="235" height="343" viewBox="0 0 235 343" fill="none" xmlns="http://www.w3.org/2000/svg">
<path d="M175.839 0H195C194.746 42.7205 207.627 72.474 218.732 98.1247L218.958 98.6472C219.399 99.6666 219.839 100.682 220.276 101.694C231.803 128.393 239 154.021 230 182.103H211.067C220.576 155.383 213.356 136.125 201.914 109.621C201.439 108.52 200.957 107.41 200.471 106.288C195.8 95.506 190.701 83.7364 186.353 70.2797L183.504 90.9719C183.375 133.621 195.62 161.908 206.72 187.548C207.161 188.567 207.6 189.582 208.037 190.594C219.564 217.294 226.5 243.021 217 271.004H198.829C208.337 244.284 201.118 225.025 189.675 198.522C189.2 197.421 188.719 196.31 188.233 195.189C183.562 184.407 178.462 172.637 174.114 159.18L154.906 299.996C148.68 323.852 116.618 342.021 78 342.021C34.9218 342.021 0 319.412 0 291.521C0 263.631 34.9218 241.021 78 241.021C103.238 241.021 125.677 248.782 139.934 260.819L175.839 0Z" fill="white"/>
</svg>
