<svg width="172" height="49" viewBox="0 0 172 49" fill="none" xmlns="http://www.w3.org/2000/svg">
<path d="M24.5 49H147.5C161.031 49 172 38.031 172 24.5C172 10.969 161.031 0 147.5 0C141.52 0 138.75 4 132.25 4C125.75 4 123.543 0 116.75 0C110.77 0 108 4 101.5 4C95 4 92.7926 0 86 0C80.0198 0 77.25 4 70.75 4C64.25 4 62.0426 0 55.25 0C49.2698 0 46.5 4 40 4C33.5 4 31.2926 0 24.5 0C10.969 0 0 10.969 0 24.5C0 38.031 10.969 49 24.5 49Z" fill="#ABB7AE"/>
<path d="M25.0077 10.7099L0 25L25.0077 39.2901C26.341 40.052 28 39.0893 28 37.5536V25V12.4464C28 10.9107 26.341 9.94798 25.0077 10.7099Z" fill="white"/>
</svg>
