<svg width="300" height="152" viewBox="0 0 300 152" fill="none" xmlns="http://www.w3.org/2000/svg">
<path d="M24 19H20.9988M20.9988 19V3M20.9988 19L18 19M20.9988 3H30M20.9988 3H0M197 6V3H169V6M203 2V6M209 6V3L237 3V6M243 2V6M249 6V3L277 3V6M282 2V6M287 2V6M292 6V3H299L299 6" stroke="#6B6E6C" stroke-width="2"/>
<path d="M18 29H24M18 39H24" stroke="#6B6E6C" stroke-width="2"/>
<path d="M13 101V104H29V101" stroke="#6B6E6C" stroke-width="2"/>
<path d="M13 52V49H29V52" stroke="#6B6E6C" stroke-width="2"/>
<circle cx="5" cy="52" r="3.5" fill="#6B6E6C" stroke="#6B6E6C"/>
<circle cx="5" cy="59" r="3.5" stroke="#6B6E6C"/>
<path d="M5 62.5V104H8.5M3 68H7M2 82H8M3 100H7" stroke="#6B6E6C" stroke-width="2"/>
<path d="M5 109V151M5 151H0M5 151H10" stroke="#6B6E6C" stroke-width="2"/>
<path d="M18 114L24 115.22M18 125.39L24 126.61M18 136.78L24 138" stroke="#6B6E6C" stroke-width="2"/>
<rect x="19" y="148" width="4" height="4" fill="#6B6E6C"/>
<path d="M32 3H38M35 6V0M56 3H54M52 3H50M48 3H46M44 3H42M58 3H60M64 3H70M67 6V0M88 3H86M84 3H82M80 3H78M76 3H74M90 3H92M96 3H102M99 6V0M128 3H134M131 6V0M120 3H118M116 3H114M112 3H110M108 3H106M122 3H124M152 3H150M148 3H146M144 3H142M140 3H138M154 3H156M160 3H166M163 6V0" stroke="#6B6E6C" stroke-width="2"/>
<path d="M28.1698 95.888L14.2599 91.6353V89.0004L26.0575 92.6072V86.201L28.1698 86.8468V95.888ZM28.1698 84.5599L14.2599 80.3072L14.2599 70.989L16.3722 71.6348V78.318L20.1485 79.4726V73.4285L22.2608 74.0743V80.1184L28.1698 81.9249V84.5599ZM21.2148 57.7176C22.7136 58.1758 23.9973 58.8618 25.0659 59.7757C26.1299 60.6834 26.945 61.728 27.511 62.9096C28.077 64.0864 28.36 65.3117 28.36 66.5853C28.36 67.859 28.077 68.9136 27.511 69.7491C26.9405 70.5784 26.1232 71.124 25.0591 71.3858C23.9905 71.6415 22.7091 71.5409 21.2148 71.0841C19.7161 70.6259 18.4347 69.9429 17.3706 69.0352C16.302 68.1214 15.4847 67.0761 14.9187 65.8992C14.3527 64.7177 14.0697 63.49 14.0697 62.2164C14.0697 60.9427 14.3527 59.8905 14.9187 59.0597C15.4847 58.2243 16.302 57.6787 17.3706 57.423C18.4347 57.1612 19.7161 57.2594 21.2148 57.7176ZM21.2148 60.3668C20.1598 60.0442 19.2701 59.945 18.5456 60.0692C17.8166 60.1872 17.2665 60.4925 16.8952 60.985C16.5194 61.4762 16.3314 62.1171 16.3314 62.9078C16.3314 63.6986 16.5194 64.4544 16.8952 65.1754C17.2665 65.8949 17.8166 66.539 18.5456 67.1075C19.2701 67.6699 20.1598 68.1124 21.2148 68.4349C22.2699 68.7575 23.1619 68.8597 23.8909 68.7417C24.6153 68.6176 25.1655 68.3099 25.5413 67.8187C25.9126 67.3262 26.0982 66.6846 26.0982 65.8939C26.0982 65.1031 25.9126 64.348 25.5413 63.6284C25.1655 62.9074 24.6153 62.2658 23.8909 61.7034C23.1619 61.1348 22.2699 60.6893 21.2148 60.3668Z" fill="white"/>
</svg>
