<svg width="393" height="165" viewBox="0 0 393 165" fill="none" xmlns="http://www.w3.org/2000/svg">
<path fill-rule="evenodd" clip-rule="evenodd" d="M162.281 0C168.286 0 174.093 0.766534 179.635 2.20918C172.956 7.26509 166.989 13.2704 161.859 20H74.7192C45.5359 20 20 46.8845 20 82.5C20 118.116 45.5359 145 74.7192 145H162.281C191.464 145 217 118.116 217 82.5C217 68.3117 212.947 55.5091 206.226 45.2398C211.448 40.4055 217.567 37.1543 223.846 35.7645C232.185 49.1817 237 65.3632 237 82.5C237 126.966 204.584 165 162.281 165H74.7192C32.4157 165 0 126.966 0 82.5C0 38.0342 32.4157 0 74.7192 0H162.281ZM230.719 20C201.536 20 176 46.8845 176 82.5C176 96.6883 180.053 109.491 186.774 119.76C181.552 124.595 175.433 127.846 169.154 129.236C160.815 115.818 156 99.6368 156 82.5C156 38.0342 188.416 0 230.719 0H318.281C360.584 0 393 38.0342 393 82.5C393 126.966 360.584 165 318.281 165H230.719C224.714 165 218.907 164.233 213.365 162.791C220.044 157.735 226.011 151.73 231.141 145H318.281C347.464 145 373 118.116 373 82.5C373 46.8845 347.464 20 318.281 20H230.719Z" fill="white"/>
</svg>
