<svg width="373" height="246" viewBox="0 0 373 246" fill="none" xmlns="http://www.w3.org/2000/svg">
<path fill-rule="evenodd" clip-rule="evenodd" d="M289.499 67.5556L294.928 49.7969C311.539 52.1651 324.59 60.0558 332.678 71.5711L339.765 81.6608L366.815 62.2063L359.728 52.1165C347.937 35.3299 328.428 24.0829 303.561 21.5604L310.153 0H288.169L281.578 21.5598C230.175 26.4645 178.911 64.3977 159.192 112.121H136.647L130.219 133.143H152.764C143.303 180.867 171.372 218.8 219.776 223.705L213.185 245.264H235.168L241.759 223.704C268.169 221.181 294.555 209.934 316.61 193.148L329.867 183.058L314.713 163.604L301.456 173.693C286.327 185.209 268.452 193.099 250.392 195.467L255.822 177.709C280.69 173.435 304.69 155.676 316.048 133.143H366.539L372.966 112.121H322.475C324.895 89.5887 311.754 71.8298 289.499 67.5556ZM267.516 67.5556L272.945 49.798C237.838 54.4074 203.392 79.8964 188.72 112.121H207.289C218.647 89.5887 242.647 71.8298 267.516 67.5556ZM228.409 195.466C196.122 190.857 177.261 165.368 182.293 133.143H200.862C198.442 155.676 211.583 173.435 233.838 177.709L228.409 195.466ZM260.899 89.1984C248.457 92.621 236.831 101.224 229.921 112.121H253.891L260.899 89.1984ZM275.874 112.121L282.882 89.1984C293.23 92.621 299.596 101.224 299.844 112.121H275.874ZM247.463 133.143H223.494C223.741 144.04 230.107 152.643 240.455 156.066L247.463 133.143ZM262.438 156.066L269.446 133.143H293.416C286.506 144.04 274.88 152.643 262.438 156.066ZM87.2139 32.9748L91.4988 18.9597H62.1878L57.903 32.9748L4.34237 208.164L0.0575169 222.179H14.713H117.301H131.957L140.527 194.149H125.871H37.9382L87.2139 32.9748Z" fill="white"/>
</svg>
