<svg width="100" height="25" viewBox="0 0 100 25" fill="none" xmlns="http://www.w3.org/2000/svg">
<path fill-rule="evenodd" clip-rule="evenodd" d="M29.0712 6.62389L29.6036 4.88263C31.2324 5.11484 32.512 5.88853 33.305 7.01761L33.9999 8.00692L36.6521 6.09938L35.9573 5.11007C34.8012 3.46413 32.8883 2.36135 30.45 2.11402L31.0964 0H28.9409L28.2946 2.11395C23.2545 2.59487 18.228 6.31426 16.2945 10.9935H14.084L13.4538 13.0548H15.6643C14.7366 17.7341 17.4888 21.4535 22.2349 21.9344L21.5886 24.0484H23.744L24.3904 21.9344C26.9798 21.687 29.567 20.5843 31.7295 18.9383L33.0294 17.949L31.5435 16.0415L30.2437 17.0308C28.7603 18.1599 27.0076 18.9335 25.2368 19.1658L25.7692 17.4245C28.2075 17.0054 30.5607 15.2641 31.6744 13.0548H36.6251L37.2553 10.9935H32.3046C32.5418 8.78425 31.2534 7.04297 29.0712 6.62389ZM26.9158 6.62389L27.4481 4.88274C24.0059 5.33469 20.6284 7.83391 19.1898 10.9935H21.0105C22.1242 8.78425 24.4774 7.04297 26.9158 6.62389ZM23.0814 19.1656C19.9155 18.7137 18.0662 16.2145 18.5596 13.0548H20.3803C20.1431 15.2641 21.4316 17.0054 23.6137 17.4245L23.0814 19.1656ZM26.267 8.74599C25.0471 9.08157 23.9071 9.92509 23.2296 10.9935H25.5798L26.267 8.74599ZM27.7353 10.9935L28.4225 8.74599C29.4371 9.08157 30.0613 9.92509 30.0856 10.9935H27.7353ZM24.9496 13.0548H22.5994C22.6236 14.1233 23.2478 14.9668 24.2625 15.3024L24.9496 13.0548ZM26.418 15.3024L27.1051 13.0548H29.4554C28.7778 14.1233 27.6378 14.9668 26.418 15.3024ZM9.23704 3.23321L9.65717 1.85902H6.7832L6.36307 3.23321L1.11141 20.4106L0.691273 21.7848H2.12826H12.1871H13.6241L14.4644 19.0364H13.0274H4.40551L9.23704 3.23321Z" fill="white"/>
<path d="M92.0615 12.289H91.6448L90.6336 13.6279H91.9559L92.0615 12.289Z" fill="white"/>
<path d="M86.1494 12.289H85.7327L84.7215 13.6279H85.7994L86.1494 12.289Z" fill="white"/>
<path d="M78.1377 12.289H77.7209L76.7098 13.6279H77.7877L78.1377 12.289Z" fill="white"/>
<path d="M66.8623 12.289H66.4456L65.4344 13.6279H66.5123L66.8623 12.289Z" fill="white"/>
<path d="M61.544 12.289H61.1272L60.1161 13.6279H61.194L61.544 12.289Z" fill="white"/>
<path d="M46.3061 12.0557H48.4362H56.5797C58.9699 12.0557 60.1448 12.1918 60.1448 12.1918C60.1448 12.1918 59.5776 13.8446 54.4933 13.8446H49.435L49.435 12.7557C48.4898 12.8195 47.9609 12.8253 47.0161 12.7557C46.7612 12.8918 46.5181 12.8918 46.3061 12.7557C46.0694 12.6037 46.113 12.0557 46.3061 12.0557Z" fill="white"/>
<path d="M90.3521 19.0697C90.1189 19.0697 89.9085 19.0517 89.721 19.0155C89.5357 18.9823 89.3917 18.9432 89.2889 18.8979L90.0758 17.623C90.3036 17.6923 90.5157 17.7255 90.712 17.7225C90.9083 17.7195 91.0981 17.6607 91.2812 17.5462C91.4666 17.4346 91.6514 17.2478 91.8355 16.9856L92.0968 16.6103L91.6309 9.52133H93.4463L93.5165 14.7657H93.5921L96.8738 9.52133H98.6939L93.4062 17.3065C93.1583 17.6743 92.8824 17.9892 92.5784 18.2514C92.2736 18.5167 91.9376 18.7186 91.5706 18.8573C91.2058 18.9989 90.7996 19.0697 90.3521 19.0697Z" fill="white"/>
<path d="M84.6903 16.47L86.8133 9.52567H88.4727L88.1189 10.6831H88.1945C88.4495 10.2822 88.7708 9.97325 89.1587 9.75624C89.5506 9.53622 89.9545 9.42621 90.3705 9.42621C90.4651 9.42621 90.5693 9.43073 90.6831 9.43977C90.8011 9.4458 90.8971 9.45635 90.9713 9.47142L90.511 10.9769C90.4459 10.9528 90.3373 10.9317 90.1853 10.9136C90.0373 10.8925 89.8908 10.882 89.7458 10.882C89.4338 10.882 89.1335 10.9468 88.8449 11.0764C88.5603 11.203 88.3126 11.3793 88.1017 11.6053C87.8907 11.8314 87.7401 12.0921 87.6498 12.3875L86.4016 16.47H84.6903Z" fill="white"/>
<path d="M80.0636 16.4891C79.3545 16.4891 78.7849 16.3418 78.3549 16.0473C77.925 15.7527 77.6475 15.3407 77.5226 14.8111C77.4009 14.2815 77.4482 13.6627 77.6647 12.9546C77.8812 12.2465 78.2127 11.6262 78.6592 11.0936C79.1088 10.5611 79.6386 10.1475 80.2487 9.85297C80.8588 9.55843 81.5184 9.41116 82.2276 9.41116C82.9367 9.41116 83.5063 9.55843 83.9363 9.85297C84.3662 10.1475 84.6417 10.5611 84.7625 11.0936C84.8865 11.6262 84.8402 12.2465 84.6237 12.9546C84.4073 13.6627 84.0747 14.2815 83.626 14.8111C83.1804 15.3407 82.6526 15.7527 82.0425 16.0473C81.4324 16.3418 80.7728 16.4891 80.0636 16.4891ZM80.4688 15.1949C80.8533 15.1949 81.2052 15.0952 81.5246 14.8959C81.8449 14.6936 82.1199 14.4228 82.3497 14.0837C82.5826 13.7445 82.7627 13.3666 82.8901 12.9501C83.0183 12.5306 83.0697 12.1513 83.0442 11.8121C83.0227 11.47 82.9137 11.1977 82.7171 10.9954C82.5205 10.7931 82.2299 10.692 81.8454 10.692C81.4515 10.692 81.0928 10.7931 80.7693 10.9954C80.449 11.1977 80.172 11.47 79.9381 11.8121C79.7084 12.1513 79.5294 12.5306 79.4011 12.9501C79.2738 13.3666 79.2213 13.7445 79.2437 14.0837C79.2692 14.4228 79.3802 14.6936 79.5768 14.8959C79.7775 15.0952 80.0748 15.1949 80.4688 15.1949Z" fill="white"/>
<path d="M65.4176 16.4696L67.5407 9.52533H69.1765L68.8157 10.7053H68.9008C69.1737 10.3075 69.5192 9.99702 69.9372 9.77398C70.3562 9.54793 70.8083 9.43491 71.2937 9.43491C71.7854 9.43491 72.1648 9.54944 72.432 9.7785C72.7033 10.0046 72.8484 10.3135 72.8673 10.7053H72.9429C73.2216 10.3195 73.5866 10.0121 74.038 9.78303C74.4935 9.55095 74.9844 9.43491 75.5107 9.43491C76.1789 9.43491 76.6624 9.63685 76.9613 10.0407C77.2601 10.4446 77.2911 11.0338 77.0543 11.8084L75.6293 16.4696H73.9131L75.2608 12.0616C75.3926 11.6306 75.3691 11.3157 75.1904 11.1167C75.0126 10.9148 74.7503 10.8138 74.4037 10.8138C73.9908 10.8138 73.6299 10.9374 73.3212 11.1845C73.0164 11.4287 72.8042 11.7467 72.6844 12.1385L71.3602 16.4696H69.6819L71.0503 11.9938C71.16 11.6351 71.1341 11.3488 70.9726 11.1348C70.8142 10.9208 70.5538 10.8138 70.1914 10.8138C69.9455 10.8138 69.7033 10.8741 69.4648 10.9947C69.2271 11.1122 69.0152 11.2795 68.8291 11.4965C68.6439 11.7105 68.5076 11.9607 68.42 12.247L67.129 16.4696H65.4176Z" fill="white"/>
<path d="M60.1434 16.47L62.2665 9.52567H63.9259L63.572 10.6831H63.6476C63.9026 10.2822 64.224 9.97325 64.6118 9.75624C65.0037 9.53622 65.4076 9.42621 65.8237 9.42621C65.9182 9.42621 66.0224 9.43073 66.1363 9.43977C66.2542 9.4458 66.3502 9.45635 66.4244 9.47142L65.9642 10.9769C65.899 10.9528 65.7904 10.9317 65.6384 10.9136C65.4904 10.8925 65.3439 10.882 65.1989 10.882C64.8869 10.882 64.5866 10.9468 64.298 11.0764C64.0135 11.203 63.7657 11.3793 63.5548 11.6053C63.3438 11.8314 63.1932 12.0921 63.1029 12.3875L61.8548 16.47H60.1434Z" fill="white"/>
<path d="M51.8313 16.4924H49.9592L56.4319 7H58.5972L58.9464 16.4924H57.0743L56.9718 8.89883H56.8962L51.8313 16.4924Z" fill="white"/>
</svg>
