<svg width="325" height="253" viewBox="0 0 325 253" fill="none" xmlns="http://www.w3.org/2000/svg">
<path d="M100.965 49.0002C57.295 49.0002 20 89.0826 20 141C20 192.918 57.295 233 100.965 233H224.035C267.705 233 305 192.918 305 141C305 89.0826 267.705 49.0002 224.035 49.0002L223.915 74.5329C223.915 77.0582 220.986 78.4537 219.025 76.8622L175.035 41.1587C173.556 39.958 173.556 37.7006 175.035 36.5L219.025 0.796469C220.986 -0.794995 223.915 0.600416 223.915 3.12579L224.035 29.0002C280.842 29.0002 325 80.2516 325 141C325 201.749 280.842 253 224.035 253H100.965C44.1576 253 0 201.749 0 141C0 80.2516 44.1576 29.0002 100.965 29.0002H162.5V49.0002H100.965Z" fill="white"/>
</svg>
