<svg width="300" height="155" viewBox="0 0 300 155" fill="none" xmlns="http://www.w3.org/2000/svg">
<path d="M19 1L23 1M27 1L31 1M35 1L39 1M43 1L47 1M51 1L55 1M59 1L63 1M67 1L71 1M75 1L79 1M83 1L87 1M91 1L95 1M99 1L103 1M107 1L111 1M115 1L119 1M123 1L127 1M131 1L135 1M139 1L143 1M147 1L151 1" stroke="#6B6E6C" stroke-width="2"/>
<path d="M183 1L187 1M191 1L195 1M199 1L203 1M207 1L211 1M215 1L219 1M223 1L227 1M231 1L235 1M239 1L243 1M247 1L251 1M255 1L259 1M263 1L267 1M271 1L275 1M279 1L283 1M287 1L291 1" stroke="#6B6E6C" stroke-width="2"/>
<path d="M19 5L167 5M299 0V5L167 5M167 5V0M167 5V9" stroke="#6B6E6C" stroke-width="2"/>
<path d="M2 103L8 104.22M2 114.39L8 115.61M2 125.78L8 127M2 137L8 138.22M2 148.39L8 149.61" stroke="#6B6E6C" stroke-width="2"/>
<path d="M5 0V5H10M2 88H5M8 88H5M5 88V94.5M5 149V154M5 154H0M5 154H10M3 9H7V23H3V9ZM3 27H7V53H3V27ZM3 57H7V65H3V57ZM3 69H7V84H3V69Z" stroke="#6B6E6C" stroke-width="2"/>
</svg>
