<svg width="475" height="285" viewBox="0 0 475 285" fill="none" xmlns="http://www.w3.org/2000/svg">
<path d="M4.2599 154.434L18.1698 158.687V161.031L8.69504 164.988V165.108L18.1698 168.005V170.64L4.2599 166.387V164.029L13.7414 160.082V159.954L4.2599 157.055V154.434ZM18.3735 151.233C18.3735 152.298 18.1494 153.153 17.7011 153.797C17.2529 154.442 16.6258 154.856 15.8198 155.04C15.0138 155.22 14.072 155.145 12.9943 154.816C11.9167 154.486 10.9726 153.985 10.1621 153.311C9.35159 152.632 8.72221 151.834 8.27394 150.915C7.82567 149.997 7.60154 149.005 7.60154 147.94C7.60154 146.874 7.82567 146.02 8.27394 145.375C8.72221 144.731 9.35159 144.32 10.1621 144.142C10.9726 143.959 11.9167 144.032 12.9943 144.361C14.072 144.691 15.0138 145.194 15.8198 145.871C16.6258 146.544 17.2529 147.339 17.7011 148.258C18.1494 149.176 18.3735 150.168 18.3735 151.233ZM16.4039 150.617C16.4039 150.039 16.2522 149.51 15.9488 149.029C15.6409 148.546 15.2289 148.132 14.7127 147.784C14.1965 147.432 13.6215 147.16 12.9875 146.966C12.3491 146.771 11.7718 146.691 11.2556 146.727C10.7349 146.758 10.3206 146.92 10.0127 147.214C9.70477 147.508 9.55082 147.944 9.55082 148.522C9.55082 149.113 9.70477 149.653 10.0127 150.14C10.3206 150.622 10.7349 151.04 11.2556 151.394C11.7718 151.741 12.3491 152.012 12.9875 152.207C13.6215 152.401 14.1965 152.482 14.7127 152.451C15.2289 152.414 15.6409 152.249 15.9488 151.955C16.2522 151.655 16.4039 151.209 16.4039 150.617ZM18.1698 143.761L7.73737 140.572V138.001L18.1698 141.19L18.1698 143.761ZM6.25673 138.827C6.25673 139.234 6.12769 139.545 5.86959 139.759C5.60697 139.973 5.29228 140.023 4.92551 139.911C4.55422 139.798 4.23953 139.555 3.98143 139.182C3.71881 138.808 3.5875 138.418 3.5875 138.011C3.5875 137.599 3.71881 137.288 3.98143 137.08C4.23953 136.865 4.55422 136.815 4.92551 136.928C5.29228 137.04 5.60697 137.283 5.86959 137.657C6.12769 138.025 6.25673 138.415 6.25673 138.827ZM10.4949 127.578L10.7394 129.996C10.513 129.994 10.3002 130.044 10.101 130.149C9.90174 130.249 9.741 130.418 9.61874 130.655C9.49649 130.892 9.43536 131.21 9.43536 131.608C9.43536 132.143 9.54629 132.626 9.76816 133.059C9.99003 133.487 10.2776 133.752 10.6307 133.855C10.9341 133.953 11.1809 133.912 11.3711 133.734C11.5612 133.55 11.7175 133.2 11.8397 132.684L12.2201 130.939C12.4329 129.972 12.7702 129.308 13.2321 128.947C13.6939 128.582 14.2984 128.511 15.0455 128.735C15.7021 128.94 16.2816 129.319 16.7842 129.87C17.2823 130.415 17.6717 131.081 17.9524 131.868C18.2332 132.654 18.3735 133.502 18.3735 134.411C18.3735 135.747 18.1064 136.74 17.5721 137.391C17.0333 138.04 16.2839 138.297 15.324 138.159L15.093 135.582C15.564 135.612 15.9194 135.479 16.1594 135.183C16.3994 134.887 16.5194 134.443 16.5194 133.852C16.5194 133.241 16.3994 132.714 16.1594 132.271C15.9194 131.824 15.6228 131.546 15.2696 131.438C14.9708 131.347 14.724 131.392 14.5293 131.574C14.3346 131.751 14.1852 132.075 14.081 132.545L13.7075 134.292C13.4992 135.274 13.1483 135.941 12.6547 136.292C12.1567 136.642 11.5273 136.698 10.7666 136.461C10.1236 136.269 9.56667 135.916 9.09576 135.403C8.62033 134.884 8.25356 134.253 7.99547 133.511C7.73285 132.763 7.60154 131.954 7.60154 131.083C7.60154 129.804 7.86189 128.878 8.38261 128.303C8.90332 127.723 9.60742 127.482 10.4949 127.578ZM18.3735 122.803C18.3735 123.896 18.1562 124.775 17.7215 125.437C17.2823 126.094 16.662 126.512 15.8605 126.694C15.0546 126.873 14.1059 126.796 13.0147 126.463C11.9416 126.135 10.9998 125.634 10.1893 124.96C9.37423 124.28 8.74032 123.484 8.28752 122.574C7.8302 121.663 7.60154 120.686 7.60154 119.644C7.60154 118.972 7.70568 118.369 7.91396 117.836C8.11772 117.297 8.43468 116.864 8.86484 116.536C9.29499 116.204 9.84288 116.007 10.5085 115.945C11.1696 115.882 11.9574 115.99 12.8721 116.27L13.626 116.5V125.442L11.9688 124.935V118.458C11.4978 118.319 11.079 118.297 10.7122 118.394C10.341 118.488 10.0489 118.69 9.83608 118.999C9.62327 119.304 9.51686 119.702 9.51686 120.194C9.51686 120.72 9.63912 121.219 9.88363 121.691C10.1236 122.163 10.4406 122.57 10.8345 122.913C11.2239 123.249 11.6518 123.492 12.1182 123.639L13.5649 124.081C14.1716 124.267 14.6923 124.31 15.127 124.211C15.5572 124.11 15.8877 123.887 16.1186 123.541C16.345 123.193 16.4582 122.74 16.4582 122.182C16.4582 121.808 16.4084 121.454 16.3088 121.12C16.2047 120.785 16.053 120.476 15.8537 120.193C15.6545 119.909 15.4077 119.666 15.1134 119.462L15.3715 117.141C15.9783 117.478 16.508 117.928 16.9608 118.493C17.4091 119.051 17.7577 119.698 18.0068 120.432C18.2513 121.165 18.3735 121.955 18.3735 122.803Z" fill="white"/>
<path d="M3 177V180H19V177" stroke="#6B6E6C" stroke-width="2"/>
<path d="M3 109V106H19V109" stroke="#6B6E6C" stroke-width="2"/>
<path d="M11 101V55M20 9H11V55M11 55H15M11 55H7" stroke="#6B6E6C" stroke-width="2"/>
<path d="M16 212H11M11 212V230.125M11 212V180.5M11 285V266M11 248H15M11 248V230.125M11 248V266M11 230.125H15M11 266H15M20 212H18M20 230.125H18M20 248H18M20 266H18M14 197H11M18 197H16" stroke="#6B6E6C" stroke-width="2"/>
<path d="M31 7L32.5 1M45 7L46.5 1M59 7L60.5 1M73 7L74.5 1M87 7L88.5 1M101 7L102.5 1M115 7L116.5 1M129 7L130.5 1M143 7L144.5 1M157 7L158.5 1M171 7L172.5 1M185 7L186.5 1" stroke="#6B6E6C" stroke-width="2"/>
<path d="M245 4H251M248 7V1M269 4H267M265 4H263M261 4H259M257 4H255M271 4H273M277 4H283M280 7V1M301 4H299M297 4H295M293 4H291M289 4H287M303 4H305M309 4H315M312 7V1M341 4H347M344 7V1M333 4H331M329 4H327M325 4H323M321 4H319M335 4H337M365 4H363M361 4H359M357 4H355M353 4H351M367 4H369M373 4H379M376 7V1M397 4H395M393 4H391M389 4H387M385 4H383M399 4H401M405 4H411M408 7V1M429 4H427M425 4H423M421 4H419M417 4H415M431 4H433M437 4H443M440 7V1M461 4H459M457 4H455M453 4H451M449 4H447M463 4H465M469 4H475M472 7V1" stroke="#6B6E6C" stroke-width="2"/>
<rect x="214" y="2" width="4" height="4" fill="#6B6E6C"/>
</svg>
