<svg width="363" height="347" viewBox="0 0 363 347" fill="none" xmlns="http://www.w3.org/2000/svg">
<path fill-rule="evenodd" clip-rule="evenodd" d="M190 173.5C190 102.051 200.733 65.6342 223.588 45.9524C235.07 36.0642 250.493 29.6089 271.484 25.6895C292.547 21.7564 318.507 20.5 350.5 20.5V0.5C318.243 0.5 290.765 1.74356 267.813 6.02927C244.788 10.3286 225.617 17.8108 210.537 30.7976C180.267 56.8657 170 101.949 170 173.5C170 244.949 159.267 281.366 136.412 301.048C124.93 310.936 109.507 317.391 88.5161 321.311C67.4526 325.244 41.4926 326.5 9.5 326.5V346.5C41.7574 346.5 69.2349 345.256 92.1871 340.971C115.212 336.671 134.383 329.189 149.463 316.202C179.733 290.134 190 245.051 190 173.5ZM0 184H64.9624V164H0V184ZM88.0376 184H153V164H88.0376V184ZM206.5 184H271.462V164H206.5V184ZM297.538 184H362.5V164H297.538V184Z" fill="white"/>
</svg>
