<svg width="304" height="317" viewBox="0 0 304 317" fill="none" xmlns="http://www.w3.org/2000/svg">
<path fill-rule="evenodd" clip-rule="evenodd" d="M281 0V317H304V0H281ZM279.644 160.641L203.321 213.81C201.995 214.734 200.177 213.785 200.177 212.169V173.497C200.177 172.393 199.282 171.497 198.177 171.497H2C0.895447 171.497 0 170.602 0 169.497V148.503C0 147.398 0.895447 146.503 2.00003 146.503H198.177C199.282 146.503 200.177 145.607 200.177 144.503V105.831C200.177 104.215 201.995 103.266 203.321 104.19L279.644 157.359C280.787 158.155 280.787 159.845 279.644 160.641Z" fill="white"/>
</svg>
