<svg width="482" height="284" viewBox="0 0 482 284" fill="none" xmlns="http://www.w3.org/2000/svg">
<path d="M18.2148 173.854C19.7136 174.313 20.9973 174.999 22.0659 175.912C23.1299 176.82 23.945 177.865 24.511 179.046C25.077 180.223 25.36 181.448 25.36 182.722C25.36 183.996 25.077 185.05 24.511 185.886C23.9405 186.715 23.1232 187.261 22.0591 187.523C20.9905 187.778 19.7091 187.678 18.2148 187.221C16.7161 186.763 15.4347 186.08 14.3706 185.172C13.302 184.258 12.4847 183.213 11.9187 182.036C11.3527 180.854 11.0697 179.627 11.0697 178.353C11.0697 177.079 11.3527 176.027 11.9187 175.196C12.4847 174.361 13.302 173.815 14.3706 173.56C15.4347 173.298 16.7161 173.396 18.2148 173.854ZM18.2148 176.503C17.1598 176.181 16.2701 176.082 15.5456 176.206C14.8166 176.324 14.2665 176.629 13.8952 177.122C13.5194 177.613 13.3314 178.254 13.3314 179.045C13.3314 179.835 13.5194 180.591 13.8952 181.312C14.2665 182.032 14.8166 182.676 15.5456 183.244C16.2701 183.807 17.1598 184.249 18.2148 184.572C19.2699 184.894 20.1619 184.996 20.8909 184.878C21.6153 184.754 22.1655 184.447 22.5413 183.955C22.9126 183.463 23.0982 182.821 23.0982 182.031C23.0982 181.24 22.9126 180.485 22.5413 179.765C22.1655 179.044 21.6153 178.402 20.8909 177.84C20.1619 177.272 19.2699 176.826 18.2148 176.503ZM17.4949 162.635L17.7394 165.053C17.513 165.05 17.3002 165.101 17.101 165.206C16.9017 165.306 16.741 165.475 16.6187 165.712C16.4965 165.949 16.4354 166.267 16.4354 166.664C16.4354 167.199 16.5463 167.683 16.7682 168.116C16.99 168.543 17.2776 168.809 17.6307 168.912C17.9341 169.009 18.1809 168.969 18.3711 168.79C18.5612 168.607 18.7175 168.257 18.8397 167.74L19.2201 165.996C19.4329 165.029 19.7702 164.365 20.2321 164.004C20.6939 163.639 21.2984 163.568 22.0455 163.791C22.7021 163.997 23.2816 164.375 23.7842 164.927C24.2823 165.472 24.6717 166.138 24.9524 166.925C25.2332 167.711 25.3735 168.559 25.3735 169.468C25.3735 170.803 25.1064 171.796 24.5721 172.447C24.0333 173.097 23.2839 173.353 22.324 173.216L22.093 170.638C22.564 170.669 22.9194 170.536 23.1594 170.24C23.3994 169.944 23.5194 169.5 23.5194 168.908C23.5194 168.297 23.3994 167.771 23.1594 167.328C22.9194 166.881 22.6228 166.603 22.2696 166.495C21.9708 166.404 21.724 166.449 21.5293 166.631C21.3346 166.808 21.1852 167.132 21.081 167.602L20.7075 169.348C20.4992 170.331 20.1483 170.998 19.6547 171.349C19.1567 171.698 18.5273 171.755 17.7666 171.517C17.1236 171.326 16.5667 170.973 16.0958 170.46C15.6203 169.94 15.2536 169.31 14.9955 168.568C14.7328 167.82 14.6015 167.01 14.6015 166.139C14.6015 164.861 14.8619 163.934 15.3826 163.36C15.9033 162.78 16.6074 162.538 17.4949 162.635ZM25.3735 157.93C25.3735 159.019 25.1449 159.885 24.6876 160.526C24.2302 161.163 23.5986 161.569 22.7926 161.744C21.9821 161.912 21.0493 161.836 19.9943 161.513C18.9348 161.189 17.9998 160.69 17.1893 160.016C16.3742 159.341 15.7403 158.546 15.2875 157.631C14.8302 156.71 14.6015 155.717 14.6015 154.651C14.6015 153.766 14.7578 153.03 15.0702 152.444C15.3781 151.851 15.815 151.438 16.381 151.204C16.9425 150.968 17.599 150.937 18.3507 151.11V153.567C17.8481 153.513 17.4292 153.622 17.0942 153.893C16.7546 154.159 16.5848 154.602 16.5848 155.222C16.5848 155.748 16.7206 156.251 16.9923 156.732C17.2594 157.211 17.6443 157.639 18.1469 158.015C18.6495 158.386 19.2517 158.68 19.9536 158.894C20.6645 159.111 21.2757 159.189 21.7874 159.128C22.2945 159.065 22.6862 158.88 22.9624 158.571C23.2341 158.256 23.3699 157.832 23.3699 157.297C23.3699 156.918 23.302 156.558 23.1662 156.219C23.0258 155.873 22.8243 155.558 22.5617 155.274C22.2991 154.99 21.9798 154.753 21.604 154.562V152.105C22.3421 152.392 22.9964 152.819 23.5669 153.387C24.1329 153.953 24.5766 154.623 24.8981 155.399C25.2151 156.173 25.3735 157.017 25.3735 157.93ZM25.1698 151.084L14.7374 147.894V145.323L25.1698 148.513V151.084ZM13.2567 146.149C13.2567 146.556 13.1277 146.867 12.8696 147.082C12.607 147.295 12.2923 147.345 11.9255 147.233C11.5542 147.12 11.2395 146.877 10.9814 146.504C10.7188 146.131 10.5875 145.74 10.5875 145.333C10.5875 144.921 10.7188 144.611 10.9814 144.402C11.2395 144.187 11.5542 144.137 11.9255 144.25C12.2923 144.363 12.607 144.605 12.8696 144.979C13.1277 145.347 13.2567 145.737 13.2567 146.149ZM11.2599 139.045L25.1698 143.298V145.869L11.2599 141.616V139.045ZM11.2599 133.83L25.1698 138.083V140.654L11.2599 136.401V133.83ZM25.3803 132.364C25.3803 133.056 25.2626 133.642 25.0272 134.124C24.7872 134.6 24.434 134.928 23.9676 135.107C23.5012 135.282 22.9262 135.265 22.2425 135.056C21.6538 134.876 21.1671 134.613 20.7822 134.268C20.3973 133.923 20.0894 133.519 19.8585 133.055C19.6276 132.592 19.4532 132.096 19.3355 131.567C19.2133 131.033 19.125 130.492 19.0706 129.945C19.0072 129.287 18.9506 128.751 18.9008 128.338C18.8465 127.924 18.765 127.61 18.6563 127.397C18.5431 127.177 18.3688 127.032 18.1333 126.96L18.0926 126.947C17.5809 126.791 17.1847 126.828 16.904 127.06C16.6233 127.291 16.4829 127.705 16.4829 128.302C16.4829 128.931 16.6142 129.471 16.8768 129.921C17.1395 130.366 17.4496 130.707 17.8073 130.944L17.4813 133.245C16.8474 132.862 16.3176 132.387 15.892 131.821C15.4618 131.254 15.1404 130.623 14.9275 129.928C14.7102 129.232 14.6015 128.503 14.6015 127.741C14.6015 127.215 14.6604 126.71 14.7781 126.225C14.8959 125.74 15.0906 125.324 15.3622 124.976C15.6294 124.627 15.9939 124.393 16.4557 124.274C16.9176 124.15 17.4949 124.194 18.1877 124.405L25.1698 126.54V129.012L23.7367 128.573V128.659C24.0265 128.903 24.2982 129.207 24.5517 129.568C24.8008 129.924 25.0023 130.338 25.1562 130.811C25.3056 131.278 25.3803 131.796 25.3803 132.364ZM23.5737 131.144C23.5737 130.628 23.4763 130.151 23.2816 129.713C23.0824 129.273 22.8198 128.902 22.4938 128.598C22.1678 128.29 21.8123 128.077 21.4274 127.96L20.1981 127.584C20.2615 127.684 20.3203 127.839 20.3747 128.05C20.429 128.256 20.4766 128.483 20.5173 128.733C20.5581 128.982 20.5943 129.227 20.626 129.469C20.6577 129.711 20.6848 129.92 20.7075 130.098C20.7573 130.496 20.8388 130.865 20.952 131.202C21.0652 131.54 21.2237 131.827 21.4274 132.065C21.6267 132.301 21.8848 132.467 22.2017 132.564C22.6545 132.703 22.9964 132.634 23.2273 132.359C23.4582 132.084 23.5737 131.679 23.5737 131.144ZM14.7374 115.318L16.6391 115.899V122.171L14.7374 121.589V115.318ZM12.2379 119.277V116.706L22.0319 119.7C22.3625 119.801 22.616 119.826 22.7926 119.776C22.9647 119.72 23.0824 119.614 23.1458 119.458C23.2092 119.302 23.2409 119.118 23.2409 118.905C23.2409 118.744 23.2296 118.594 23.2069 118.454C23.1843 118.31 23.1639 118.199 23.1458 118.123L25.0679 118.277C25.1132 118.428 25.163 118.64 25.2173 118.912C25.2717 119.18 25.3034 119.497 25.3124 119.865C25.3305 120.514 25.2377 121.066 25.034 121.52C24.8257 121.972 24.5042 122.283 24.0695 122.454C23.6348 122.619 23.0915 122.6 22.4394 122.396L12.2379 119.277ZM25.3735 111.778C25.3735 112.843 25.1494 113.698 24.7011 114.342C24.2529 114.987 23.6258 115.401 22.8198 115.585C22.0138 115.765 21.072 115.69 19.9943 115.361C18.9167 115.031 17.9726 114.53 17.1621 113.856C16.3516 113.177 15.7222 112.378 15.2739 111.46C14.8257 110.542 14.6015 109.55 14.6015 108.485C14.6015 107.419 14.8257 106.565 15.2739 105.92C15.7222 105.276 16.3516 104.865 17.1621 104.687C17.9726 104.504 18.9167 104.577 19.9943 104.906C21.072 105.236 22.0138 105.739 22.8198 106.416C23.6258 107.089 24.2529 107.884 24.7011 108.803C25.1494 109.721 25.3735 110.713 25.3735 111.778ZM23.4039 111.162C23.4039 110.584 23.2522 110.055 22.9488 109.574C22.6409 109.091 22.2289 108.676 21.7127 108.329C21.1965 107.977 20.6215 107.704 19.9875 107.511C19.3491 107.315 18.7718 107.236 18.2556 107.272C17.7349 107.303 17.3206 107.465 17.0127 107.759C16.7048 108.053 16.5508 108.489 16.5508 109.066C16.5508 109.658 16.7048 110.198 17.0127 110.685C17.3206 111.167 17.7349 111.585 18.2556 111.939C18.7718 112.286 19.3491 112.557 19.9875 112.752C20.6215 112.946 21.1965 113.027 21.7127 112.995C22.2289 112.959 22.6409 112.794 22.9488 112.5C23.2522 112.2 23.4039 111.754 23.4039 111.162ZM25.1698 104.306L14.7374 101.117V98.6239L16.4761 99.1555V99.0418C15.8739 98.6589 15.4098 98.1761 15.0838 97.5934C14.7532 97.0047 14.588 96.3978 14.588 95.7728C14.588 95.6308 14.5947 95.4742 14.6083 95.3032C14.6174 95.126 14.6332 94.9817 14.6559 94.8703L16.9176 95.5618C16.8814 95.6596 16.8497 95.8227 16.8225 96.0512C16.7908 96.2735 16.775 96.4935 16.775 96.7113C16.775 97.1801 16.8723 97.6313 17.067 98.0648C17.2572 98.4923 17.5221 98.8645 17.8617 99.1814C18.2013 99.4983 18.5929 99.7245 19.0367 99.8602L25.1698 101.735L25.1698 104.306Z" fill="white"/>
<path d="M10 198V201H26V198" stroke="#6B6E6C" stroke-width="2"/>
<path d="M10 85V82H26V85" stroke="#6B6E6C" stroke-width="2"/>
<path d="M38 6V3.00062L72 3V6" stroke="#6B6E6C" stroke-width="2"/>
<path d="M86 6V3.00062L138 3V6" stroke="#6B6E6C" stroke-width="2"/>
<path d="M21 38H17.9988M17.9988 38V7H27M17.9988 38L15 38" stroke="#6B6E6C" stroke-width="2"/>
<path d="M0 199H6M3 202V196" stroke="#6B6E6C" stroke-width="2"/>
<path d="M0 84H6M3 87V81" stroke="#6B6E6C" stroke-width="2"/>
<path d="M3 192V188M3 184V180M3 176V172M3 168V164M3 160V156M3 152V148" stroke="#6B6E6C" stroke-width="2"/>
<path d="M261 0V6M258 3L264 3" stroke="#6B6E6C" stroke-width="2"/>
<path d="M479 0V6M476 3L482 3" stroke="#6B6E6C" stroke-width="2"/>
<path d="M268 3H272M276 3L280 3M284 3L288 3M292 3L296 3M300 3L304 3M308 3L312 3M316 3L320 3M324 3H328M332 3H336M340 3H344M348 3H352M356 3L360 3M364 3L368 3M372 3L376 3M380 3L384 3M388 3L392 3M396 3H400M404 3H408M412 3H416M420 3H424M428 3H432M436 3L440 3M444 3L448 3M452 3L456 3M460 3L464 3M468 3L472 3" stroke="#6B6E6C" stroke-width="2"/>
<path d="M18 242V283H27" stroke="#6B6E6C" stroke-width="2"/>
<path d="M15 212H21M15 222H21M15 232H21" stroke="#6B6E6C" stroke-width="2"/>
<path d="M153 6V0M163 6V0M173 6V0M183 6V0M193 6V0M203 6V0M214 6V0M224 6V0M234 6V0M244 6V0" stroke="#6B6E6C" stroke-width="2"/>
<path d="M15 50H21M15 60H21M15 70H21" stroke="#6B6E6C" stroke-width="2"/>
<circle cx="3" cy="141" r="3" fill="#6B6E6C"/>
</svg>
