<svg width="388" height="144" viewBox="0 0 388 144" fill="none" xmlns="http://www.w3.org/2000/svg">
<path d="M276.001 23.0247L282.459 1.90175H386.518L380.06 23.0247H339.748L303.68 141.001H280.244L316.313 23.0247H276.001Z" fill="white"/>
<path d="M141.76 71.4512C137.178 86.4387 130.621 99.2755 122.089 109.961C113.614 120.602 103.99 128.753 93.2161 134.412C82.4851 140.072 71.4092 142.902 59.9886 142.902C48.568 142.902 39.2014 140.072 31.8887 134.412C24.6324 128.707 19.9985 120.534 17.9872 109.894C16.0322 99.2076 17.3388 86.3934 21.9071 71.4512C26.4893 56.4636 33.018 43.6495 41.4932 33.0088C50.0248 22.3228 59.6561 14.1499 70.3871 8.48992C81.1606 2.82997 92.2577 0 103.678 0C115.099 0 124.444 2.82997 131.714 8.48992C139.027 14.1499 143.661 22.3228 145.616 33.0088C147.627 43.6495 146.342 56.4636 141.76 71.4512ZM118.006 71.4512C121.231 60.901 122.402 52.0036 121.518 44.7589C120.689 37.4689 118.126 31.9674 113.827 28.2545C109.541 24.4963 103.854 22.6172 96.7635 22.6172C89.6734 22.6172 82.8367 24.4963 76.2533 28.2545C69.6838 31.9674 63.7351 37.4689 58.407 44.7589C53.1353 52.0036 48.8866 60.901 45.6611 71.4512C42.4356 82.0013 41.2369 90.9214 42.0649 98.2114C42.9493 105.456 45.5341 110.958 49.8194 114.716C54.1186 118.429 59.8133 120.285 66.9034 120.285C73.9935 120.285 80.8233 118.429 87.3928 114.716C93.9761 110.958 99.9037 105.456 105.175 98.2114C110.503 90.9214 114.78 82.0013 118.006 71.4512Z" fill="white"/>
<path d="M251.436 1.90175H275.063L247.279 92.7779C244.234 102.739 239.347 111.501 232.62 119.063C225.935 126.624 217.973 132.533 208.732 136.79C199.506 141.001 189.585 143.106 178.971 143.106C168.315 143.106 159.661 141.001 153.009 136.79C146.371 132.533 142.022 126.624 139.96 119.063C137.899 111.501 138.392 102.739 141.437 92.7779L169.221 1.90175H192.847L165.707 90.6724C163.935 96.4682 163.546 101.63 164.539 106.158C165.575 110.686 167.885 114.24 171.469 116.821C175.066 119.357 179.858 120.625 185.845 120.625C191.831 120.625 197.398 119.357 202.546 116.821C207.751 114.24 212.234 110.686 215.996 106.158C219.758 101.63 222.524 96.4682 224.296 90.6724L251.436 1.90175Z" fill="white"/>
</svg>
