<svg width="235" height="284" viewBox="0 0 235 284" fill="none" xmlns="http://www.w3.org/2000/svg">
<path d="M25.1698 176.085L11.2599 171.833V166.378C11.2599 165.261 11.4455 164.38 11.8168 163.736C12.1881 163.087 12.7088 162.671 13.379 162.488C14.0446 162.298 14.8211 162.339 15.7086 162.61C16.6006 162.883 17.3749 163.319 18.0315 163.917C18.6835 164.509 19.1884 165.244 19.5461 166.12C19.8992 166.995 20.0758 167.991 20.0758 169.109V172.994L17.9839 172.354V168.824C17.9839 168.171 17.8979 167.61 17.7258 167.14C17.5492 166.67 17.2934 166.284 16.9583 165.982C16.6187 165.675 16.2022 165.446 15.7086 165.295C15.2151 165.144 14.794 165.117 14.4453 165.214C14.0921 165.31 13.825 165.538 13.6439 165.899C13.4582 166.259 13.3654 166.768 13.3654 167.427V169.841L25.1698 173.45V176.085ZM18.8669 166.644L25.1698 164.97V167.911L18.8669 169.52V166.644ZM25.3735 158.58C25.3735 159.674 25.1562 160.552 24.7215 161.215C24.2823 161.871 23.662 162.29 22.8605 162.471C22.0546 162.651 21.1059 162.574 20.0147 162.24C18.9416 161.912 17.9998 161.411 17.1893 160.737C16.3742 160.057 15.7403 159.262 15.2875 158.352C14.8302 157.44 14.6015 156.463 14.6015 155.422C14.6015 154.749 14.7057 154.147 14.914 153.614C15.1177 153.075 15.4347 152.641 15.8648 152.314C16.295 151.981 16.8429 151.784 17.5085 151.722C18.1696 151.659 18.9574 151.768 19.8721 152.047L20.626 152.278V161.22L18.9688 160.713V154.236C18.4978 154.096 18.079 154.075 17.7122 154.171C17.341 154.266 17.0489 154.468 16.8361 154.777C16.6233 155.081 16.5169 155.479 16.5169 155.972C16.5169 156.497 16.6391 156.996 16.8836 157.469C17.1236 157.94 17.4406 158.347 17.8345 158.69C18.2239 159.027 18.6518 159.269 19.1182 159.416L20.5649 159.858C21.1716 160.044 21.6923 160.087 22.127 159.988C22.5572 159.888 22.8877 159.664 23.1186 159.318C23.345 158.971 23.4582 158.518 23.4582 157.959C23.4582 157.585 23.4084 157.231 23.3088 156.898C23.2047 156.563 23.053 156.254 22.8537 155.97C22.6545 155.687 22.4077 155.443 22.1134 155.24L22.3715 152.918C22.9783 153.255 23.508 153.706 23.9608 154.27C24.4091 154.829 24.7577 155.475 25.0068 156.209C25.2513 156.942 25.3735 157.733 25.3735 158.58ZM14.7374 138.871L25.1698 145.945L25.1698 148.786L14.7374 149.481V146.74L22.487 146.602V146.488L14.7374 141.605V138.871ZM25.3735 135.885C25.3735 136.979 25.1562 137.857 24.7215 138.519C24.2823 139.176 23.662 139.594 22.8605 139.776C22.0546 139.955 21.1059 139.878 20.0147 139.545C18.9416 139.217 17.9998 138.716 17.1893 138.042C16.3742 137.362 15.7403 136.566 15.2875 135.656C14.8302 134.745 14.6015 133.768 14.6015 132.726C14.6015 132.054 14.7057 131.451 14.914 130.918C15.1177 130.379 15.4347 129.946 15.8648 129.618C16.295 129.286 16.8429 129.089 17.5085 129.027C18.1696 128.964 18.9574 129.072 19.8721 129.352L20.626 129.582L20.626 138.524L18.9688 138.018L18.9688 131.54C18.4978 131.401 18.079 131.379 17.7122 131.476C17.341 131.571 17.0489 131.772 16.8361 132.081C16.6233 132.386 16.5169 132.784 16.5169 133.276C16.5169 133.802 16.6391 134.301 16.8836 134.774C17.1236 135.245 17.4406 135.652 17.8345 135.995C18.2239 136.331 18.6518 136.574 19.1182 136.721L20.5649 137.163C21.1716 137.349 21.6923 137.392 22.127 137.293C22.5572 137.192 22.8877 136.969 23.1186 136.623C23.345 136.275 23.4582 135.822 23.4582 135.264C23.4582 134.89 23.4084 134.536 23.3088 134.202C23.2047 133.867 23.053 133.558 22.8537 133.275C22.6545 132.991 22.4077 132.748 22.1134 132.544L22.3715 130.223C22.9783 130.56 23.508 131.01 23.9608 131.575C24.4091 132.133 24.7577 132.78 25.0068 133.514C25.2513 134.247 25.3735 135.037 25.3735 135.885ZM25.1698 128.797L14.7374 125.607V123.114L16.4761 123.646V123.532C15.8739 123.149 15.4098 122.666 15.0838 122.084C14.7532 121.495 14.588 120.888 14.588 120.263C14.588 120.121 14.5947 119.964 14.6083 119.793C14.6174 119.616 14.6332 119.472 14.6559 119.361L16.9176 120.052C16.8814 120.15 16.8497 120.313 16.8225 120.541C16.7908 120.764 16.775 120.984 16.775 121.202C16.775 121.67 16.8723 122.121 17.067 122.555C17.2572 122.983 17.5221 123.355 17.8617 123.672C18.2013 123.988 18.5929 124.215 19.0367 124.35L25.1698 126.226V128.797ZM25.1698 120.753L11.2599 116.501V113.93L16.4625 115.52V115.414C16.209 115.203 15.9395 114.934 15.6543 114.605C15.3645 114.275 15.1177 113.873 14.914 113.399C14.7057 112.923 14.6015 112.366 14.6015 111.727C14.6015 110.884 14.8076 110.187 15.2196 109.636C15.6271 109.079 16.2316 108.724 17.033 108.571C17.83 108.412 18.808 108.51 19.9672 108.864C21.1127 109.215 22.0863 109.709 22.8877 110.347C23.6891 110.985 24.3004 111.707 24.7215 112.512C25.1426 113.318 25.3532 114.15 25.3532 115.007C25.3532 115.632 25.2536 116.12 25.0543 116.471C24.8551 116.822 24.6151 117.08 24.3344 117.245C24.0491 117.404 23.7797 117.513 23.5261 117.573V117.722L25.1698 118.225V120.753ZM19.9536 116.637C20.6282 116.843 21.2191 116.925 21.7263 116.881C22.2334 116.832 22.6296 116.662 22.9149 116.371C23.1956 116.073 23.336 115.652 23.336 115.107C23.336 114.539 23.1911 114.019 22.9013 113.547C22.607 113.073 22.2062 112.662 21.6991 112.313C21.1875 111.958 20.6056 111.68 19.9536 111.481C19.3061 111.283 18.731 111.204 18.2284 111.245C17.7258 111.285 17.3319 111.454 17.0466 111.75C16.7614 112.046 16.6187 112.481 16.6187 113.054C16.6187 113.603 16.7568 114.112 17.033 114.579C17.3093 115.047 17.6964 115.457 18.1945 115.808C18.6925 116.155 19.2789 116.431 19.9536 116.637Z" fill="white"/>
<path d="M23 92V88M23 84V80M23 76V72M23 68V64M23 60V56M23 52V48M23 44V40" stroke="#6B6E6C" stroke-width="2"/>
<path d="M10 186V189H26V186" stroke="#6B6E6C" stroke-width="2"/>
<path d="M10 102V99H26V102" stroke="#6B6E6C" stroke-width="2"/>
<path d="M5 14V10H9" stroke="#6B6E6C" stroke-width="2"/>
<path d="M9 36H5V32" stroke="#6B6E6C" stroke-width="2"/>
<path d="M31 32V36H27" stroke="#6B6E6C" stroke-width="2"/>
<path d="M27 10H31V14" stroke="#6B6E6C" stroke-width="2"/>
<path d="M18 8V3M18 3H85.5M18 3H0M18 3V0M234 9V3H191M136 3V9M136 3H85.5M136 3H179M136 3V0M85.5 3V7M185 3V7M185 3H191M185 3H179M191 3V7M179 3C179 3.66667 179 6.6 179 7" stroke="#6B6E6C" stroke-width="2"/>
<path d="M18 94V38" stroke="#6B6E6C" stroke-width="2"/>
<path d="M15 195H21M15 205H21M15 215H21M15 225H21M18 281H21M18 281V284M18 281H15M18 281V278M18 235H15H21H18ZM18 235V236M15 273H18M21 273H18M18 273V267" stroke="#6B6E6C" stroke-width="2"/>
</svg>
