<svg width="305" height="305" viewBox="0 0 305 305" fill="none" xmlns="http://www.w3.org/2000/svg">
<path fill-rule="evenodd" clip-rule="evenodd" d="M265 305H40C17.9087 305 0 287.091 0 265V40C0 17.9086 17.9087 0 40 0H255.234C258.275 0 261.18 1.25849 263.259 3.47665L302.025 44.8266C303.936 46.8654 305 49.5553 305 52.3499V265C305 287.091 287.091 305 265 305ZM85 45C85 33.9543 93.9543 25 105 25H237C248.046 25 257 33.9543 257 45V110C257 121.046 248.046 130 237 130H105C93.9543 130 85 121.046 85 110V45ZM35 156H257V246C257 268.091 239.091 286 217 286H75C52.9087 286 35 268.091 35 246V156ZM190 37H227V117H190V37ZM73 185C70.2386 185 68 187.239 68 190C68 192.761 70.2386 195 73 195H222C224.761 195 227 192.761 227 190C227 187.239 224.761 185 222 185H73ZM68 221C68 218.239 70.2386 216 73 216H222C224.761 216 227 218.239 227 221C227 223.761 224.761 226 222 226H73C70.2386 226 68 223.761 68 221ZM73 247C70.2386 247 68 249.239 68 252C68 254.761 70.2386 257 73 257H222C224.761 257 227 254.761 227 252C227 249.239 224.761 247 222 247H73Z" fill="white"/>
</svg>
