<svg width="394" height="313" viewBox="0 0 394 313" fill="none" xmlns="http://www.w3.org/2000/svg">
<path fill-rule="evenodd" clip-rule="evenodd" d="M194.997 5.50699L197.246 15.2509C198.558 20.9389 201.242 28.0327 203.725 32.4647C206.425 37.2828 204.708 43.3771 199.89 46.0768C195.072 48.7764 188.977 47.0591 186.278 42.2411C182.762 35.9661 179.445 27.0599 177.758 19.7478L175.51 10.0038L194.997 5.50699ZM144.511 24.3202L153.773 28.0912C162.701 31.7263 169.251 37.9447 174.69 47.2249C177.483 51.9896 175.884 58.1161 171.12 60.9088C166.355 63.7015 160.228 62.1029 157.436 57.3381C153.753 51.0541 150.303 48.2725 146.231 46.6147L136.969 42.8437L144.511 24.3202ZM246.586 13.719L240.184 21.4012C236.021 26.3975 233.249 31.6205 231.718 37.3174C230.284 42.6509 224.798 45.8123 219.464 44.3786C214.131 42.9448 210.97 37.4589 212.403 32.1254C214.755 23.3783 218.983 15.6013 224.82 8.59756L231.221 0.915344L246.586 13.719ZM184.81 262.039C189.329 265.214 190.418 271.452 187.243 275.97C183.17 281.767 177.637 289.556 168.358 295.444L159.914 300.801L149.199 283.914L157.643 278.556C163.247 275 166.831 270.233 170.879 264.472C174.054 259.953 180.291 258.864 184.81 262.039ZM208.171 272.738C213.563 273.936 216.962 279.278 215.764 284.669L211.763 302.669L209.593 312.431L190.07 308.092L192.239 298.33L196.24 280.33C197.438 274.938 202.78 271.539 208.171 272.738ZM230.694 270.485C235.518 267.798 241.608 269.53 244.296 274.355C247.558 280.212 250.9 287.961 252.707 294.593L255.337 304.241L236.04 309.499L233.411 299.851C232.1 295.039 229.442 288.788 226.824 284.088C224.136 279.263 225.869 273.173 230.694 270.485ZM65.4869 115.699C36.6628 120.264 15.647 150.812 21.2185 185.989C26.79 221.166 56.2172 243.725 85.0412 239.16L171.525 225.462C200.349 220.897 221.365 190.349 215.793 155.172C210.222 119.995 180.794 97.4359 151.97 102.001L65.4869 115.699ZM1.46475 189.118C-5.49123 145.2 20.5755 102.563 62.3582 95.9451L148.842 82.2474C190.624 75.6297 228.591 108.125 235.547 152.043C242.503 195.961 216.436 238.598 174.653 245.216L88.1699 258.914C46.3872 265.531 8.42073 233.036 1.46475 189.118ZM271.5 101.5C248.226 101.5 235.196 84.6724 225.888 66.5735L243.674 57.4265C252.366 74.3277 260.336 81.5 271.5 81.5H318.5C360.804 81.5 393.219 119.534 393.219 164C393.219 208.466 360.804 246.5 318.5 246.5L266 246.5C261.707 246.5 259.061 247.078 256.543 248.172C253.718 249.399 250.546 251.489 245.341 255.454L233.22 239.546C238.516 235.511 243.343 232.101 248.573 229.828C254.11 227.422 259.574 226.5 266 226.5L318.5 226.5C347.683 226.5 373.219 199.616 373.219 164C373.219 128.384 347.683 101.5 318.5 101.5H271.5Z" fill="white"/>
</svg>
