<svg width="235" height="284" viewBox="0 0 235 284" fill="none" xmlns="http://www.w3.org/2000/svg">
<path d="M25.1698 199.628L11.2599 199.48V196.646L21.4818 197.151V197.016L11.2599 191.092V188.514L21.4886 188.836V188.708L11.2599 182.96V180.126L25.1698 188.484V191.084L15.4098 191.012V191.125L25.1698 197.028V199.628ZM25.3803 180.704C25.3803 181.395 25.2626 181.982 25.0272 182.464C24.7872 182.94 24.434 183.268 23.9676 183.447C23.5012 183.622 22.9262 183.604 22.2425 183.395C21.6538 183.215 21.1671 182.953 20.7822 182.608C20.3973 182.263 20.0894 181.859 19.8585 181.395C19.6276 180.932 19.4532 180.436 19.3355 179.907C19.2133 179.373 19.125 178.832 19.0706 178.285C19.0072 177.626 18.9506 177.091 18.9008 176.678C18.8465 176.263 18.765 175.95 18.6563 175.736C18.5431 175.517 18.3688 175.372 18.1333 175.3L18.0926 175.287C17.5809 175.131 17.1847 175.168 16.904 175.4C16.6233 175.631 16.4829 176.045 16.4829 176.642C16.4829 177.271 16.6142 177.811 16.8768 178.261C17.1395 178.705 17.4496 179.047 17.8073 179.284L17.4813 181.585C16.8474 181.201 16.3176 180.727 15.892 180.161C15.4618 179.594 15.1404 178.963 14.9275 178.268C14.7102 177.572 14.6015 176.843 14.6015 176.081C14.6015 175.555 14.6604 175.05 14.7781 174.565C14.8959 174.08 15.0906 173.664 15.3622 173.316C15.6294 172.967 15.9939 172.733 16.4557 172.613C16.9176 172.489 17.4949 172.533 18.1877 172.745L25.1698 174.88L25.1698 177.351L23.7367 176.913V176.998C24.0265 177.243 24.2982 177.547 24.5517 177.908C24.8008 178.264 25.0023 178.678 25.1562 179.151C25.3056 179.618 25.3803 180.136 25.3803 180.704ZM23.5737 179.484C23.5737 178.968 23.4763 178.491 23.2816 178.053C23.0824 177.613 22.8198 177.241 22.4938 176.938C22.1678 176.63 21.8123 176.417 21.4274 176.3L20.1981 175.924C20.2615 176.024 20.3203 176.179 20.3747 176.39C20.429 176.596 20.4766 176.823 20.5173 177.072C20.5581 177.322 20.5943 177.567 20.626 177.809C20.6577 178.051 20.6848 178.26 20.7075 178.437C20.7573 178.836 20.8388 179.204 20.952 179.542C21.0652 179.88 21.2237 180.167 21.4274 180.405C21.6267 180.641 21.8848 180.807 22.2017 180.904C22.6545 181.043 22.9964 180.974 23.2273 180.699C23.4582 180.424 23.5737 180.019 23.5737 179.484ZM14.7374 159.751L25.1698 166.826V169.667L14.7374 170.362V167.621L22.487 167.483V167.369L14.7374 162.486V159.751ZM25.3735 156.766C25.3735 157.859 25.1562 158.738 24.7215 159.4C24.2823 160.057 23.662 160.475 22.8605 160.656C22.0546 160.836 21.1059 160.759 20.0147 160.426C18.9416 160.097 17.9998 159.596 17.1893 158.923C16.3742 158.242 15.7403 157.447 15.2875 156.537C14.8302 155.626 14.6015 154.649 14.6015 153.607C14.6015 152.935 14.7057 152.332 14.914 151.799C15.1177 151.26 15.4347 150.827 15.8648 150.499C16.295 150.167 16.8429 149.97 17.5085 149.908C18.1696 149.845 18.9574 149.953 19.8721 150.233L20.626 150.463V159.405L18.9688 158.898V152.421C18.4978 152.282 18.079 152.26 17.7122 152.357C17.341 152.451 17.0489 152.653 16.8361 152.962C16.6233 153.267 16.5169 153.665 16.5169 154.157C16.5169 154.683 16.6391 155.182 16.8836 155.654C17.1236 156.125 17.4406 156.532 17.8345 156.875C18.2239 157.212 18.6518 157.454 19.1182 157.602L20.5649 158.044C21.1716 158.23 21.6923 158.273 22.127 158.174C22.5572 158.073 22.8877 157.85 23.1186 157.504C23.345 157.156 23.4582 156.703 23.4582 156.145C23.4582 155.77 23.4084 155.417 23.3088 155.083C23.2047 154.748 23.053 154.439 22.8537 154.156C22.6545 153.872 22.4077 153.629 22.1134 153.425L22.3715 151.103C22.9783 151.441 23.508 151.891 23.9608 152.456C24.4091 153.014 24.7577 153.661 25.0068 154.395C25.2513 155.128 25.3735 155.918 25.3735 156.766ZM17.4949 138.709L17.7394 141.127C17.513 141.124 17.3002 141.175 17.101 141.28C16.9017 141.38 16.741 141.549 16.6187 141.786C16.4965 142.023 16.4354 142.341 16.4354 142.739C16.4354 143.274 16.5463 143.757 16.7682 144.19C16.99 144.617 17.2776 144.883 17.6307 144.986C17.9341 145.084 18.1809 145.043 18.3711 144.864C18.5612 144.681 18.7175 144.331 18.8397 143.815L19.2201 142.07C19.4329 141.103 19.7702 140.439 20.2321 140.078C20.6939 139.713 21.2984 139.642 22.0455 139.866C22.7021 140.071 23.2816 140.45 23.7842 141.001C24.2823 141.546 24.6717 142.212 24.9524 142.999C25.2332 143.785 25.3735 144.633 25.3735 145.542C25.3735 146.877 25.1064 147.871 24.5721 148.522C24.0333 149.171 23.2839 149.428 22.324 149.29L22.093 146.713C22.564 146.743 22.9194 146.61 23.1594 146.314C23.3994 146.018 23.5194 145.574 23.5194 144.982C23.5194 144.372 23.3994 143.845 23.1594 143.402C22.9194 142.955 22.6228 142.677 22.2696 142.569C21.9708 142.478 21.724 142.523 21.5293 142.705C21.3346 142.882 21.1852 143.206 21.081 143.676L20.7075 145.423C20.4992 146.405 20.1483 147.072 19.6547 147.423C19.1567 147.773 18.5273 147.829 17.7666 147.592C17.1236 147.4 16.5667 147.047 16.0958 146.534C15.6203 146.014 15.2536 145.384 14.9955 144.642C14.7328 143.894 14.6015 143.085 14.6015 142.213C14.6015 140.935 14.8619 140.008 15.3826 139.434C15.9033 138.854 16.6074 138.613 17.4949 138.709ZM19.057 134.261L25.1698 136.13V138.701L11.2599 134.448V131.934L16.5101 133.539V133.411C15.9214 132.976 15.4573 132.438 15.1177 131.799C14.7736 131.155 14.6015 130.415 14.6015 129.582C14.6015 128.824 14.7532 128.21 15.0566 127.74C15.36 127.269 15.8037 126.969 16.3878 126.84C16.9719 126.706 17.6851 126.768 18.5273 127.025L25.1698 129.056V131.627L18.9076 129.712C18.2058 129.498 17.6602 129.52 17.2708 129.78C16.8768 130.034 16.6799 130.499 16.6799 131.176C16.6799 131.631 16.775 132.067 16.9651 132.485C17.1508 132.897 17.4202 133.259 17.7734 133.57C18.1266 133.877 18.5544 134.107 19.057 134.261ZM25.3803 123.36C25.3803 124.052 25.2626 124.638 25.0272 125.12C24.7872 125.596 24.434 125.924 23.9676 126.103C23.5012 126.278 22.9262 126.261 22.2425 126.052C21.6538 125.872 21.1671 125.609 20.7822 125.264C20.3973 124.919 20.0894 124.515 19.8585 124.051C19.6276 123.588 19.4532 123.092 19.3355 122.563C19.2133 122.029 19.125 121.488 19.0706 120.941C19.0072 120.283 18.9506 119.747 18.9008 119.334C18.8465 118.92 18.765 118.606 18.6563 118.393C18.5431 118.173 18.3688 118.028 18.1333 117.956L18.0926 117.943C17.5809 117.787 17.1847 117.824 16.904 118.056C16.6233 118.287 16.4829 118.701 16.4829 119.298C16.4829 119.928 16.6142 120.467 16.8768 120.917C17.1395 121.362 17.4496 121.703 17.8073 121.94L17.4813 124.241C16.8474 123.858 16.3176 123.383 15.892 122.817C15.4618 122.25 15.1404 121.619 14.9275 120.925C14.7102 120.228 14.6015 119.499 14.6015 118.737C14.6015 118.211 14.6604 117.706 14.7781 117.221C14.8959 116.736 15.0906 116.32 15.3622 115.972C15.6294 115.623 15.9939 115.389 16.4557 115.27C16.9176 115.146 17.4949 115.19 18.1877 115.401L25.1698 117.536V120.008L23.7367 119.57V119.655C24.0265 119.9 24.2982 120.203 24.5517 120.564C24.8008 120.92 25.0023 121.334 25.1562 121.807C25.3056 122.275 25.3803 122.792 25.3803 123.36ZM23.5737 122.14C23.5737 121.624 23.4763 121.147 23.2816 120.709C23.0824 120.269 22.8198 119.898 22.4938 119.594C22.1678 119.286 21.8123 119.073 21.4274 118.956L20.1981 118.58C20.2615 118.68 20.3203 118.835 20.3747 119.046C20.429 119.252 20.4766 119.48 20.5173 119.729C20.5581 119.978 20.5943 120.223 20.626 120.465C20.6577 120.707 20.6848 120.916 20.7075 121.094C20.7573 121.492 20.8388 121.861 20.952 122.198C21.0652 122.536 21.2237 122.823 21.4274 123.061C21.6267 123.297 21.8848 123.464 22.2017 123.56C22.6545 123.699 22.9964 123.631 23.2273 123.356C23.4582 123.08 23.5737 122.675 23.5737 122.14ZM29.0819 116.147L14.7374 111.761V109.233L16.4625 109.76V109.611C16.209 109.401 15.9395 109.132 15.6543 108.803C15.3645 108.473 15.1177 108.071 14.914 107.597C14.7057 107.121 14.6015 106.564 14.6015 105.924C14.6015 105.082 14.8076 104.385 15.2196 103.833C15.6271 103.276 16.2316 102.921 17.033 102.769C17.83 102.61 18.808 102.708 19.9672 103.062C21.1127 103.412 22.0863 103.906 22.8877 104.544C23.6891 105.182 24.3004 105.904 24.7215 106.71C25.1426 107.516 25.3532 108.347 25.3532 109.204C25.3532 109.829 25.2536 110.317 25.0543 110.668C24.8551 111.019 24.6151 111.277 24.3344 111.443C24.0491 111.602 23.7797 111.711 23.5261 111.771V111.877L29.0819 113.576V116.147ZM19.9536 110.835C20.6282 111.041 21.2191 111.122 21.7263 111.078C22.2334 111.03 22.6296 110.86 22.9149 110.568C23.1956 110.271 23.336 109.849 23.336 109.305C23.336 108.737 23.1911 108.217 22.9013 107.744C22.607 107.271 22.2062 106.86 21.6991 106.51C21.1875 106.155 20.6056 105.878 19.9536 105.679C19.3061 105.481 18.731 105.402 18.2284 105.442C17.7258 105.483 17.3319 105.651 17.0466 105.947C16.7614 106.244 16.6187 106.678 16.6187 107.251C16.6187 107.801 16.7568 108.309 17.033 108.777C17.3093 109.245 17.6964 109.655 18.1945 110.006C18.6925 110.352 19.2789 110.629 19.9536 110.835ZM25.3735 97.6836C25.3735 98.7773 25.1562 99.6555 24.7215 100.318C24.2823 100.974 23.662 101.393 22.8605 101.574C22.0546 101.754 21.1059 101.677 20.0147 101.344C18.9416 101.015 17.9998 100.514 17.1893 99.8405C16.3742 99.1604 15.7403 98.3653 15.2875 97.4551C14.8302 96.5435 14.6015 95.5669 14.6015 94.5252C14.6015 93.8528 14.7057 93.2502 14.914 92.7173C15.1177 92.1783 15.4347 91.7449 15.8648 91.4171C16.295 91.0846 16.8429 90.8875 17.5085 90.8259C18.1696 90.7628 18.9574 90.8711 19.8721 91.1508L20.626 91.3813V100.323L18.9688 99.8164V93.3391C18.4978 93.1998 18.079 93.1783 17.7122 93.2745C17.341 93.3693 17.0489 93.5712 16.8361 93.8802C16.6233 94.1845 16.5169 94.5828 16.5169 95.0753C16.5169 95.6008 16.6391 96.0998 16.8836 96.5723C17.1236 97.0434 17.4406 97.4505 17.8345 97.7934C18.2239 98.1303 18.6518 98.3724 19.1182 98.5197L20.5649 98.962C21.1716 99.1475 21.6923 99.1907 22.127 99.0916C22.5572 98.9911 22.8877 98.7678 23.1186 98.4217C23.345 98.0743 23.4582 97.6212 23.4582 97.0625C23.4582 96.6884 23.4084 96.3347 23.3088 96.0012C23.2047 95.6663 23.053 95.3572 22.8537 95.0737C22.6545 94.7903 22.4077 94.5467 22.1134 94.3431L22.3715 92.0215C22.9783 92.3585 23.508 92.8093 23.9608 93.3738C24.4091 93.9323 24.7577 94.5786 25.0068 95.3129C25.2513 96.0458 25.3735 96.836 25.3735 97.6836ZM25.1698 90.5954L14.7374 87.4059V84.913L16.4761 85.4445V85.3309C15.8739 84.9479 15.4098 84.4651 15.0838 83.8825C14.7532 83.2938 14.588 82.6869 14.588 82.0619C14.588 81.9198 14.5947 81.7633 14.6083 81.5923C14.6174 81.4151 14.6332 81.2708 14.6559 81.1593L16.9176 81.8508C16.8814 81.9487 16.8497 82.1118 16.8225 82.3402C16.7908 82.5625 16.775 82.7826 16.775 83.0004C16.775 83.4691 16.8723 83.9203 17.067 84.3539C17.2572 84.7814 17.5221 85.1535 17.8617 85.4704C18.2013 85.7873 18.5929 86.0136 19.0367 86.1493L25.1698 88.0243V90.5954Z" fill="white"/>
<path d="M10 213V216H26V213" stroke="#6B6E6C" stroke-width="2"/>
<path d="M10 68V65H26V68" stroke="#6B6E6C" stroke-width="2"/>
<path d="M5 14V10H9" stroke="#6B6E6C" stroke-width="2"/>
<path d="M9 36H5V32" stroke="#6B6E6C" stroke-width="2"/>
<path d="M31 32V36H27" stroke="#6B6E6C" stroke-width="2"/>
<path d="M27 10H31V14" stroke="#6B6E6C" stroke-width="2"/>
<path d="M15 281H21M18 278V284" stroke="#6B6E6C" stroke-width="2"/>
<path d="M15 223H21M18 226V220" stroke="#6B6E6C" stroke-width="2"/>
<path d="M18 275V271M18 237V229" stroke="#6B6E6C" stroke-width="2"/>
<path d="M15 43H21M18 48V38" stroke="#6B6E6C" stroke-width="2"/>
<path d="M15 58H21M18 63V53" stroke="#6B6E6C" stroke-width="2"/>
<path d="M18 8V3M18 0V3M18 3H0M18 3H40" stroke="#6B6E6C" stroke-width="2"/>
<circle cx="51" cy="3" r="1" fill="#6B6E6C"/>
<circle cx="45" cy="3" r="1" fill="#6B6E6C"/>
<circle cx="57" cy="3" r="1" fill="#6B6E6C"/>
<circle cx="63" cy="3" r="1" fill="#6B6E6C"/>
<circle cx="69" cy="3" r="1" fill="#6B6E6C"/>
<circle cx="75" cy="3" r="1" fill="#6B6E6C"/>
<circle cx="81" cy="3" r="1" fill="#6B6E6C"/>
<circle cx="87" cy="3" r="1" fill="#6B6E6C"/>
<circle cx="93" cy="3" r="1" fill="#6B6E6C"/>
<circle cx="99" cy="3" r="1" fill="#6B6E6C"/>
<circle cx="105" cy="3" r="1" fill="#6B6E6C"/>
<circle cx="111" cy="3" r="1" fill="#6B6E6C"/>
<circle cx="117" cy="3" r="1" fill="#6B6E6C"/>
<circle cx="123" cy="3" r="1" fill="#6B6E6C"/>
<circle cx="147" cy="3" r="1" fill="#6B6E6C"/>
<circle cx="153" cy="3" r="1" fill="#6B6E6C"/>
<circle cx="159" cy="3" r="1" fill="#6B6E6C"/>
<circle cx="165" cy="3" r="1" fill="#6B6E6C"/>
<circle cx="171" cy="3" r="1" fill="#6B6E6C"/>
<circle cx="177" cy="3" r="1" fill="#6B6E6C"/>
<circle cx="183" cy="3" r="1" fill="#6B6E6C"/>
<circle cx="189" cy="3" r="1" fill="#6B6E6C"/>
<circle cx="195" cy="3" r="1" fill="#6B6E6C"/>
<circle cx="201" cy="3" r="1" fill="#6B6E6C"/>
<circle cx="207" cy="3" r="1" fill="#6B6E6C"/>
<circle cx="213" cy="3" r="1" fill="#6B6E6C"/>
<circle cx="219" cy="3" r="1" fill="#6B6E6C"/>
<circle cx="225" cy="3" r="1" fill="#6B6E6C"/>
<path d="M235 3H231V0" stroke="#6B6E6C" stroke-width="2"/>
<path d="M128 3H135M142 3H135M135 3V0M135 3V6" stroke="#6B6E6C" stroke-width="2"/>
</svg>
